  0
SECTION
  2
BLOCKS
  0
ENDSEC
  0
SECTION
  2
ENTITIES
  0
LINE
  8
0
 10
90
 20
325
 11
17.1753
 21
325
  0
LINE
  8
0
 10
17.1753
 20
325
 11
17.1643
 21
324.959
  0
LINE
  8
0
 10
17.1643
 20
324.959
 11
17.0987
 21
324.788
  0
LINE
  8
0
 10
17.0987
 20
324.788
 11
17.0155
 21
324.625
  0
LINE
  8
0
 10
17.0155
 20
324.625
 11
16.9158
 21
324.471
  0
LINE
  8
0
 10
16.9158
 20
324.471
 11
16.8005
 21
324.329
  0
LINE
  8
0
 10
16.8005
 20
324.329
 11
16.671
 21
324.199
  0
LINE
  8
0
 10
16.671
 20
324.199
 11
16.5286
 21
324.084
  0
LINE
  8
0
 10
16.5286
 20
324.084
 11
16.375
 21
323.984
  0
LINE
  8
0
 10
16.375
 20
323.984
 11
16.2118
 21
323.901
  0
LINE
  8
0
 10
16.2118
 20
323.901
 11
16.0408
 21
323.836
  0
LINE
  8
0
 10
16.0408
 20
323.836
 11
15.8638
 21
323.788
  0
LINE
  8
0
 10
15.8638
 20
323.788
 11
15.6829
 21
323.76
  0
LINE
  8
0
 10
15.6829
 20
323.76
 11
15.5
 21
323.75
  0
LINE
  8
0
 10
15.5
 20
323.75
 11
15.3171
 21
323.76
  0
LINE
  8
0
 10
15.3171
 20
323.76
 11
15.1362
 21
323.788
  0
LINE
  8
0
 10
15.1362
 20
323.788
 11
14.9592
 21
323.836
  0
LINE
  8
0
 10
14.9592
 20
323.836
 11
14.7882
 21
323.901
  0
LINE
  8
0
 10
14.7882
 20
323.901
 11
14.625
 21
323.984
  0
LINE
  8
0
 10
14.625
 20
323.984
 11
14.4714
 21
324.084
  0
LINE
  8
0
 10
14.4714
 20
324.084
 11
14.329
 21
324.199
  0
LINE
  8
0
 10
14.329
 20
324.199
 11
14.1995
 21
324.329
  0
LINE
  8
0
 10
14.1995
 20
324.329
 11
14.0842
 21
324.471
  0
LINE
  8
0
 10
14.0842
 20
324.471
 11
13.9845
 21
324.625
  0
LINE
  8
0
 10
13.9845
 20
324.625
 11
13.9013
 21
324.788
  0
LINE
  8
0
 10
13.9013
 20
324.788
 11
13.8356
 21
324.959
  0
LINE
  8
0
 10
13.8356
 20
324.959
 11
13.8247
 21
325
  0
LINE
  8
0
 10
13.8247
 20
325
 11
-13.8247
 21
325
  0
LINE
  8
0
 10
-13.8247
 20
325
 11
-13.8356
 21
324.959
  0
LINE
  8
0
 10
-13.8356
 20
324.959
 11
-13.9013
 21
324.788
  0
LINE
  8
0
 10
-13.9013
 20
324.788
 11
-13.9845
 21
324.625
  0
LINE
  8
0
 10
-13.9845
 20
324.625
 11
-14.0842
 21
324.471
  0
LINE
  8
0
 10
-14.0842
 20
324.471
 11
-14.1995
 21
324.329
  0
LINE
  8
0
 10
-14.1995
 20
324.329
 11
-14.329
 21
324.199
  0
LINE
  8
0
 10
-14.329
 20
324.199
 11
-14.4714
 21
324.084
  0
LINE
  8
0
 10
-14.4714
 20
324.084
 11
-14.625
 21
323.984
  0
LINE
  8
0
 10
-14.625
 20
323.984
 11
-14.7882
 21
323.901
  0
LINE
  8
0
 10
-14.7882
 20
323.901
 11
-14.9592
 21
323.836
  0
LINE
  8
0
 10
-14.9592
 20
323.836
 11
-15.1362
 21
323.788
  0
LINE
  8
0
 10
-15.1362
 20
323.788
 11
-15.3171
 21
323.76
  0
LINE
  8
0
 10
-15.3171
 20
323.76
 11
-15.5
 21
323.75
  0
LINE
  8
0
 10
-15.5
 20
323.75
 11
-15.6829
 21
323.76
  0
LINE
  8
0
 10
-15.6829
 20
323.76
 11
-15.8638
 21
323.788
  0
LINE
  8
0
 10
-15.8638
 20
323.788
 11
-16.0408
 21
323.836
  0
LINE
  8
0
 10
-16.0408
 20
323.836
 11
-16.2118
 21
323.901
  0
LINE
  8
0
 10
-16.2118
 20
323.901
 11
-16.375
 21
323.984
  0
LINE
  8
0
 10
-16.375
 20
323.984
 11
-16.5286
 21
324.084
  0
LINE
  8
0
 10
-16.5286
 20
324.084
 11
-16.671
 21
324.199
  0
LINE
  8
0
 10
-16.671
 20
324.199
 11
-16.8005
 21
324.329
  0
LINE
  8
0
 10
-16.8005
 20
324.329
 11
-16.9158
 21
324.471
  0
LINE
  8
0
 10
-16.9158
 20
324.471
 11
-17.0155
 21
324.625
  0
LINE
  8
0
 10
-17.0155
 20
324.625
 11
-17.0987
 21
324.788
  0
LINE
  8
0
 10
-17.0987
 20
324.788
 11
-17.1643
 21
324.959
  0
LINE
  8
0
 10
-17.1643
 20
324.959
 11
-17.1753
 21
325
  0
LINE
  8
0
 10
-17.1753
 20
325
 11
-90
 21
325
  0
LINE
  8
0
 10
-90
 20
325
 11
-90
 21
-325
  0
LINE
  8
0
 10
-90
 20
-325
 11
90
 21
-325
  0
LINE
  8
0
 10
90
 20
-325
 11
90
 21
325
  0
LINE
  8
0
 10
-1.25433
 20
298.066
 11
-2.49493
 21
298.262
  0
LINE
  8
0
 10
-2.49493
 20
298.262
 11
-3.70819
 21
298.587
  0
LINE
  8
0
 10
-3.70819
 20
298.587
 11
-4.88083
 21
299.037
  0
LINE
  8
0
 10
-4.88083
 20
299.037
 11
-6
 21
299.608
  0
LINE
  8
0
 10
-6
 20
299.608
 11
-7.05342
 21
300.292
  0
LINE
  8
0
 10
-7.05342
 20
300.292
 11
-8.02956
 21
301.082
  0
LINE
  8
0
 10
-8.02956
 20
301.082
 11
-8.91772
 21
301.97
  0
LINE
  8
0
 10
-8.91772
 20
301.97
 11
-9.70819
 21
302.947
  0
LINE
  8
0
 10
-9.70819
 20
302.947
 11
-10.3923
 21
304
  0
LINE
  8
0
 10
-10.3923
 20
304
 11
-10.9625
 21
305.119
  0
LINE
  8
0
 10
-10.9625
 20
305.119
 11
-11.4127
 21
306.292
  0
LINE
  8
0
 10
-11.4127
 20
306.292
 11
-11.7378
 21
307.505
  0
LINE
  8
0
 10
-11.7378
 20
307.505
 11
-11.9342
 21
308.746
  0
LINE
  8
0
 10
-11.9342
 20
308.746
 11
-12
 21
310
  0
LINE
  8
0
 10
-12
 20
310
 11
-11.9342
 21
311.254
  0
LINE
  8
0
 10
-11.9342
 20
311.254
 11
-11.7378
 21
312.495
  0
LINE
  8
0
 10
-11.7378
 20
312.495
 11
-11.4127
 21
313.708
  0
LINE
  8
0
 10
-11.4127
 20
313.708
 11
-10.9625
 21
314.881
  0
LINE
  8
0
 10
-10.9625
 20
314.881
 11
-10.3923
 21
316
  0
LINE
  8
0
 10
-10.3923
 20
316
 11
-9.70819
 21
317.053
  0
LINE
  8
0
 10
-9.70819
 20
317.053
 11
-8.91772
 21
318.03
  0
LINE
  8
0
 10
-8.91772
 20
318.03
 11
-8.02956
 21
318.918
  0
LINE
  8
0
 10
-8.02956
 20
318.918
 11
-7.05342
 21
319.708
  0
LINE
  8
0
 10
-7.05342
 20
319.708
 11
-6
 21
320.392
  0
LINE
  8
0
 10
-6
 20
320.392
 11
-4.88083
 21
320.963
  0
LINE
  8
0
 10
-4.88083
 20
320.963
 11
-3.70819
 21
321.413
  0
LINE
  8
0
 10
-3.70819
 20
321.413
 11
-2.49493
 21
321.738
  0
LINE
  8
0
 10
-2.49493
 20
321.738
 11
-1.25433
 21
321.934
  0
LINE
  8
0
 10
-1.25433
 20
321.934
 11
0
 21
322
  0
LINE
  8
0
 10
0
 20
322
 11
1.25433
 21
321.934
  0
LINE
  8
0
 10
1.25433
 20
321.934
 11
2.49493
 21
321.738
  0
LINE
  8
0
 10
2.49493
 20
321.738
 11
3.70819
 21
321.413
  0
LINE
  8
0
 10
3.70819
 20
321.413
 11
4.88083
 21
320.963
  0
LINE
  8
0
 10
4.88083
 20
320.963
 11
6
 21
320.392
  0
LINE
  8
0
 10
6
 20
320.392
 11
7.05342
 21
319.708
  0
LINE
  8
0
 10
7.05342
 20
319.708
 11
8.02956
 21
318.918
  0
LINE
  8
0
 10
8.02956
 20
318.918
 11
8.91772
 21
318.03
  0
LINE
  8
0
 10
8.91772
 20
318.03
 11
9.70819
 21
317.053
  0
LINE
  8
0
 10
9.70819
 20
317.053
 11
10.3923
 21
316
  0
LINE
  8
0
 10
10.3923
 20
316
 11
10.9625
 21
314.881
  0
LINE
  8
0
 10
10.9625
 20
314.881
 11
11.4127
 21
313.708
  0
LINE
  8
0
 10
11.4127
 20
313.708
 11
11.7378
 21
312.495
  0
LINE
  8
0
 10
11.7378
 20
312.495
 11
11.9342
 21
311.254
  0
LINE
  8
0
 10
11.9342
 20
311.254
 11
12
 21
310
  0
LINE
  8
0
 10
12
 20
310
 11
11.9342
 21
308.746
  0
LINE
  8
0
 10
11.9342
 20
308.746
 11
11.7378
 21
307.505
  0
LINE
  8
0
 10
11.7378
 20
307.505
 11
11.4127
 21
306.292
  0
LINE
  8
0
 10
11.4127
 20
306.292
 11
10.9625
 21
305.119
  0
LINE
  8
0
 10
10.9625
 20
305.119
 11
10.3923
 21
304
  0
LINE
  8
0
 10
10.3923
 20
304
 11
9.70819
 21
302.947
  0
LINE
  8
0
 10
9.70819
 20
302.947
 11
8.91772
 21
301.97
  0
LINE
  8
0
 10
8.91772
 20
301.97
 11
8.02956
 21
301.082
  0
LINE
  8
0
 10
8.02956
 20
301.082
 11
7.05342
 21
300.292
  0
LINE
  8
0
 10
7.05342
 20
300.292
 11
6
 21
299.608
  0
LINE
  8
0
 10
6
 20
299.608
 11
4.88083
 21
299.037
  0
LINE
  8
0
 10
4.88083
 20
299.037
 11
3.70819
 21
298.587
  0
LINE
  8
0
 10
3.70819
 20
298.587
 11
2.49493
 21
298.262
  0
LINE
  8
0
 10
2.49493
 20
298.262
 11
1.25433
 21
298.066
  0
LINE
  8
0
 10
1.25433
 20
298.066
 11
0
 21
298
  0
LINE
  8
0
 10
0
 20
298
 11
-1.25433
 21
298.066
  0
LINE
  8
0
 10
-15.6829
 20
292.76
 11
-15.8638
 21
292.788
  0
LINE
  8
0
 10
-15.8638
 20
292.788
 11
-16.0408
 21
292.836
  0
LINE
  8
0
 10
-16.0408
 20
292.836
 11
-16.2118
 21
292.901
  0
LINE
  8
0
 10
-16.2118
 20
292.901
 11
-16.375
 21
292.984
  0
LINE
  8
0
 10
-16.375
 20
292.984
 11
-16.5286
 21
293.084
  0
LINE
  8
0
 10
-16.5286
 20
293.084
 11
-16.671
 21
293.199
  0
LINE
  8
0
 10
-16.671
 20
293.199
 11
-16.8005
 21
293.329
  0
LINE
  8
0
 10
-16.8005
 20
293.329
 11
-16.9158
 21
293.471
  0
LINE
  8
0
 10
-16.9158
 20
293.471
 11
-17.0155
 21
293.625
  0
LINE
  8
0
 10
-17.0155
 20
293.625
 11
-17.0987
 21
293.788
  0
LINE
  8
0
 10
-17.0987
 20
293.788
 11
-17.1643
 21
293.959
  0
LINE
  8
0
 10
-17.1643
 20
293.959
 11
-17.2117
 21
294.136
  0
LINE
  8
0
 10
-17.2117
 20
294.136
 11
-17.2404
 21
294.317
  0
LINE
  8
0
 10
-17.2404
 20
294.317
 11
-17.25
 21
294.5
  0
LINE
  8
0
 10
-17.25
 20
294.5
 11
-17.2404
 21
294.683
  0
LINE
  8
0
 10
-17.2404
 20
294.683
 11
-17.2117
 21
294.864
  0
LINE
  8
0
 10
-17.2117
 20
294.864
 11
-17.1643
 21
295.041
  0
LINE
  8
0
 10
-17.1643
 20
295.041
 11
-17.0987
 21
295.212
  0
LINE
  8
0
 10
-17.0987
 20
295.212
 11
-17.0155
 21
295.375
  0
LINE
  8
0
 10
-17.0155
 20
295.375
 11
-16.9158
 21
295.529
  0
LINE
  8
0
 10
-16.9158
 20
295.529
 11
-16.8005
 21
295.671
  0
LINE
  8
0
 10
-16.8005
 20
295.671
 11
-16.671
 21
295.801
  0
LINE
  8
0
 10
-16.671
 20
295.801
 11
-16.5286
 21
295.916
  0
LINE
  8
0
 10
-16.5286
 20
295.916
 11
-16.375
 21
296.016
  0
LINE
  8
0
 10
-16.375
 20
296.016
 11
-16.2118
 21
296.099
  0
LINE
  8
0
 10
-16.2118
 20
296.099
 11
-16.0408
 21
296.164
  0
LINE
  8
0
 10
-16.0408
 20
296.164
 11
-15.8638
 21
296.212
  0
LINE
  8
0
 10
-15.8638
 20
296.212
 11
-15.6829
 21
296.24
  0
LINE
  8
0
 10
-15.6829
 20
296.24
 11
-15.5
 21
296.25
  0
LINE
  8
0
 10
-15.5
 20
296.25
 11
-15.3171
 21
296.24
  0
LINE
  8
0
 10
-15.3171
 20
296.24
 11
-15.1362
 21
296.212
  0
LINE
  8
0
 10
-15.1362
 20
296.212
 11
-14.9592
 21
296.164
  0
LINE
  8
0
 10
-14.9592
 20
296.164
 11
-14.7882
 21
296.099
  0
LINE
  8
0
 10
-14.7882
 20
296.099
 11
-14.625
 21
296.016
  0
LINE
  8
0
 10
-14.625
 20
296.016
 11
-14.4714
 21
295.916
  0
LINE
  8
0
 10
-14.4714
 20
295.916
 11
-14.329
 21
295.801
  0
LINE
  8
0
 10
-14.329
 20
295.801
 11
-14.1995
 21
295.671
  0
LINE
  8
0
 10
-14.1995
 20
295.671
 11
-14.0842
 21
295.529
  0
LINE
  8
0
 10
-14.0842
 20
295.529
 11
-13.9845
 21
295.375
  0
LINE
  8
0
 10
-13.9845
 20
295.375
 11
-13.9013
 21
295.212
  0
LINE
  8
0
 10
-13.9013
 20
295.212
 11
-13.8356
 21
295.041
  0
LINE
  8
0
 10
-13.8356
 20
295.041
 11
-13.7882
 21
294.864
  0
LINE
  8
0
 10
-13.7882
 20
294.864
 11
-13.7596
 21
294.683
  0
LINE
  8
0
 10
-13.7596
 20
294.683
 11
-13.75
 21
294.5
  0
LINE
  8
0
 10
-13.75
 20
294.5
 11
-13.7596
 21
294.317
  0
LINE
  8
0
 10
-13.7596
 20
294.317
 11
-13.7882
 21
294.136
  0
LINE
  8
0
 10
-13.7882
 20
294.136
 11
-13.8356
 21
293.959
  0
LINE
  8
0
 10
-13.8356
 20
293.959
 11
-13.9013
 21
293.788
  0
LINE
  8
0
 10
-13.9013
 20
293.788
 11
-13.9845
 21
293.625
  0
LINE
  8
0
 10
-13.9845
 20
293.625
 11
-14.0842
 21
293.471
  0
LINE
  8
0
 10
-14.0842
 20
293.471
 11
-14.1995
 21
293.329
  0
LINE
  8
0
 10
-14.1995
 20
293.329
 11
-14.329
 21
293.199
  0
LINE
  8
0
 10
-14.329
 20
293.199
 11
-14.4714
 21
293.084
  0
LINE
  8
0
 10
-14.4714
 20
293.084
 11
-14.625
 21
292.984
  0
LINE
  8
0
 10
-14.625
 20
292.984
 11
-14.7882
 21
292.901
  0
LINE
  8
0
 10
-14.7882
 20
292.901
 11
-14.9592
 21
292.836
  0
LINE
  8
0
 10
-14.9592
 20
292.836
 11
-15.1362
 21
292.788
  0
LINE
  8
0
 10
-15.1362
 20
292.788
 11
-15.3171
 21
292.76
  0
LINE
  8
0
 10
-15.3171
 20
292.76
 11
-15.5
 21
292.75
  0
LINE
  8
0
 10
-15.5
 20
292.75
 11
-15.6829
 21
292.76
  0
LINE
  8
0
 10
15.3171
 20
292.76
 11
15.1362
 21
292.788
  0
LINE
  8
0
 10
15.1362
 20
292.788
 11
14.9592
 21
292.836
  0
LINE
  8
0
 10
14.9592
 20
292.836
 11
14.7882
 21
292.901
  0
LINE
  8
0
 10
14.7882
 20
292.901
 11
14.625
 21
292.984
  0
LINE
  8
0
 10
14.625
 20
292.984
 11
14.4714
 21
293.084
  0
LINE
  8
0
 10
14.4714
 20
293.084
 11
14.329
 21
293.199
  0
LINE
  8
0
 10
14.329
 20
293.199
 11
14.1995
 21
293.329
  0
LINE
  8
0
 10
14.1995
 20
293.329
 11
14.0842
 21
293.471
  0
LINE
  8
0
 10
14.0842
 20
293.471
 11
13.9845
 21
293.625
  0
LINE
  8
0
 10
13.9845
 20
293.625
 11
13.9013
 21
293.788
  0
LINE
  8
0
 10
13.9013
 20
293.788
 11
13.8356
 21
293.959
  0
LINE
  8
0
 10
13.8356
 20
293.959
 11
13.7882
 21
294.136
  0
LINE
  8
0
 10
13.7882
 20
294.136
 11
13.7596
 21
294.317
  0
LINE
  8
0
 10
13.7596
 20
294.317
 11
13.75
 21
294.5
  0
LINE
  8
0
 10
13.75
 20
294.5
 11
13.7596
 21
294.683
  0
LINE
  8
0
 10
13.7596
 20
294.683
 11
13.7882
 21
294.864
  0
LINE
  8
0
 10
13.7882
 20
294.864
 11
13.8356
 21
295.041
  0
LINE
  8
0
 10
13.8356
 20
295.041
 11
13.9013
 21
295.212
  0
LINE
  8
0
 10
13.9013
 20
295.212
 11
13.9845
 21
295.375
  0
LINE
  8
0
 10
13.9845
 20
295.375
 11
14.0842
 21
295.529
  0
LINE
  8
0
 10
14.0842
 20
295.529
 11
14.1995
 21
295.671
  0
LINE
  8
0
 10
14.1995
 20
295.671
 11
14.329
 21
295.801
  0
LINE
  8
0
 10
14.329
 20
295.801
 11
14.4714
 21
295.916
  0
LINE
  8
0
 10
14.4714
 20
295.916
 11
14.625
 21
296.016
  0
LINE
  8
0
 10
14.625
 20
296.016
 11
14.7882
 21
296.099
  0
LINE
  8
0
 10
14.7882
 20
296.099
 11
14.9592
 21
296.164
  0
LINE
  8
0
 10
14.9592
 20
296.164
 11
15.1362
 21
296.212
  0
LINE
  8
0
 10
15.1362
 20
296.212
 11
15.3171
 21
296.24
  0
LINE
  8
0
 10
15.3171
 20
296.24
 11
15.5
 21
296.25
  0
LINE
  8
0
 10
15.5
 20
296.25
 11
15.6829
 21
296.24
  0
LINE
  8
0
 10
15.6829
 20
296.24
 11
15.8638
 21
296.212
  0
LINE
  8
0
 10
15.8638
 20
296.212
 11
16.0408
 21
296.164
  0
LINE
  8
0
 10
16.0408
 20
296.164
 11
16.2118
 21
296.099
  0
LINE
  8
0
 10
16.2118
 20
296.099
 11
16.375
 21
296.016
  0
LINE
  8
0
 10
16.375
 20
296.016
 11
16.5286
 21
295.916
  0
LINE
  8
0
 10
16.5286
 20
295.916
 11
16.671
 21
295.801
  0
LINE
  8
0
 10
16.671
 20
295.801
 11
16.8005
 21
295.671
  0
LINE
  8
0
 10
16.8005
 20
295.671
 11
16.9158
 21
295.529
  0
LINE
  8
0
 10
16.9158
 20
295.529
 11
17.0155
 21
295.375
  0
LINE
  8
0
 10
17.0155
 20
295.375
 11
17.0987
 21
295.212
  0
LINE
  8
0
 10
17.0987
 20
295.212
 11
17.1643
 21
295.041
  0
LINE
  8
0
 10
17.1643
 20
295.041
 11
17.2117
 21
294.864
  0
LINE
  8
0
 10
17.2117
 20
294.864
 11
17.2404
 21
294.683
  0
LINE
  8
0
 10
17.2404
 20
294.683
 11
17.25
 21
294.5
  0
LINE
  8
0
 10
17.25
 20
294.5
 11
17.2404
 21
294.317
  0
LINE
  8
0
 10
17.2404
 20
294.317
 11
17.2117
 21
294.136
  0
LINE
  8
0
 10
17.2117
 20
294.136
 11
17.1643
 21
293.959
  0
LINE
  8
0
 10
17.1643
 20
293.959
 11
17.0987
 21
293.788
  0
LINE
  8
0
 10
17.0987
 20
293.788
 11
17.0155
 21
293.625
  0
LINE
  8
0
 10
17.0155
 20
293.625
 11
16.9158
 21
293.471
  0
LINE
  8
0
 10
16.9158
 20
293.471
 11
16.8005
 21
293.329
  0
LINE
  8
0
 10
16.8005
 20
293.329
 11
16.671
 21
293.199
  0
LINE
  8
0
 10
16.671
 20
293.199
 11
16.5286
 21
293.084
  0
LINE
  8
0
 10
16.5286
 20
293.084
 11
16.375
 21
292.984
  0
LINE
  8
0
 10
16.375
 20
292.984
 11
16.2118
 21
292.901
  0
LINE
  8
0
 10
16.2118
 20
292.901
 11
16.0408
 21
292.836
  0
LINE
  8
0
 10
16.0408
 20
292.836
 11
15.8638
 21
292.788
  0
LINE
  8
0
 10
15.8638
 20
292.788
 11
15.6829
 21
292.76
  0
LINE
  8
0
 10
15.6829
 20
292.76
 11
15.5
 21
292.75
  0
LINE
  8
0
 10
15.5
 20
292.75
 11
15.3171
 21
292.76
  0
LINE
  8
0
 10
70.3171
 20
288.76
 11
70.1362
 21
288.788
  0
LINE
  8
0
 10
70.1362
 20
288.788
 11
69.9592
 21
288.836
  0
LINE
  8
0
 10
69.9592
 20
288.836
 11
69.7882
 21
288.901
  0
LINE
  8
0
 10
69.7882
 20
288.901
 11
69.625
 21
288.984
  0
LINE
  8
0
 10
69.625
 20
288.984
 11
69.4714
 21
289.084
  0
LINE
  8
0
 10
69.4714
 20
289.084
 11
69.329
 21
289.199
  0
LINE
  8
0
 10
69.329
 20
289.199
 11
69.1995
 21
289.329
  0
LINE
  8
0
 10
69.1995
 20
289.329
 11
69.0842
 21
289.471
  0
LINE
  8
0
 10
69.0842
 20
289.471
 11
68.9845
 21
289.625
  0
LINE
  8
0
 10
68.9845
 20
289.625
 11
68.9013
 21
289.788
  0
LINE
  8
0
 10
68.9013
 20
289.788
 11
68.8356
 21
289.959
  0
LINE
  8
0
 10
68.8356
 20
289.959
 11
68.7882
 21
290.136
  0
LINE
  8
0
 10
68.7882
 20
290.136
 11
68.7596
 21
290.317
  0
LINE
  8
0
 10
68.7596
 20
290.317
 11
68.75
 21
290.5
  0
LINE
  8
0
 10
68.75
 20
290.5
 11
68.7596
 21
290.683
  0
LINE
  8
0
 10
68.7596
 20
290.683
 11
68.7882
 21
290.864
  0
LINE
  8
0
 10
68.7882
 20
290.864
 11
68.8356
 21
291.041
  0
LINE
  8
0
 10
68.8356
 20
291.041
 11
68.9013
 21
291.212
  0
LINE
  8
0
 10
68.9013
 20
291.212
 11
68.9845
 21
291.375
  0
LINE
  8
0
 10
68.9845
 20
291.375
 11
69.0842
 21
291.529
  0
LINE
  8
0
 10
69.0842
 20
291.529
 11
69.1995
 21
291.671
  0
LINE
  8
0
 10
69.1995
 20
291.671
 11
69.329
 21
291.801
  0
LINE
  8
0
 10
69.329
 20
291.801
 11
69.4714
 21
291.916
  0
LINE
  8
0
 10
69.4714
 20
291.916
 11
69.625
 21
292.016
  0
LINE
  8
0
 10
69.625
 20
292.016
 11
69.7882
 21
292.099
  0
LINE
  8
0
 10
69.7882
 20
292.099
 11
69.9592
 21
292.164
  0
LINE
  8
0
 10
69.9592
 20
292.164
 11
70.1362
 21
292.212
  0
LINE
  8
0
 10
70.1362
 20
292.212
 11
70.3171
 21
292.24
  0
LINE
  8
0
 10
70.3171
 20
292.24
 11
70.5
 21
292.25
  0
LINE
  8
0
 10
70.5
 20
292.25
 11
70.6829
 21
292.24
  0
LINE
  8
0
 10
70.6829
 20
292.24
 11
70.8638
 21
292.212
  0
LINE
  8
0
 10
70.8638
 20
292.212
 11
71.0408
 21
292.164
  0
LINE
  8
0
 10
71.0408
 20
292.164
 11
71.2118
 21
292.099
  0
LINE
  8
0
 10
71.2118
 20
292.099
 11
71.375
 21
292.016
  0
LINE
  8
0
 10
71.375
 20
292.016
 11
71.5286
 21
291.916
  0
LINE
  8
0
 10
71.5286
 20
291.916
 11
71.671
 21
291.801
  0
LINE
  8
0
 10
71.671
 20
291.801
 11
71.8005
 21
291.671
  0
LINE
  8
0
 10
71.8005
 20
291.671
 11
71.9158
 21
291.529
  0
LINE
  8
0
 10
71.9158
 20
291.529
 11
72.0155
 21
291.375
  0
LINE
  8
0
 10
72.0155
 20
291.375
 11
72.0987
 21
291.212
  0
LINE
  8
0
 10
72.0987
 20
291.212
 11
72.1644
 21
291.041
  0
LINE
  8
0
 10
72.1644
 20
291.041
 11
72.2118
 21
290.864
  0
LINE
  8
0
 10
72.2118
 20
290.864
 11
72.2404
 21
290.683
  0
LINE
  8
0
 10
72.2404
 20
290.683
 11
72.25
 21
290.5
  0
LINE
  8
0
 10
72.25
 20
290.5
 11
72.2404
 21
290.317
  0
LINE
  8
0
 10
72.2404
 20
290.317
 11
72.2118
 21
290.136
  0
LINE
  8
0
 10
72.2118
 20
290.136
 11
72.1644
 21
289.959
  0
LINE
  8
0
 10
72.1644
 20
289.959
 11
72.0987
 21
289.788
  0
LINE
  8
0
 10
72.0987
 20
289.788
 11
72.0155
 21
289.625
  0
LINE
  8
0
 10
72.0155
 20
289.625
 11
71.9158
 21
289.471
  0
LINE
  8
0
 10
71.9158
 20
289.471
 11
71.8005
 21
289.329
  0
LINE
  8
0
 10
71.8005
 20
289.329
 11
71.671
 21
289.199
  0
LINE
  8
0
 10
71.671
 20
289.199
 11
71.5286
 21
289.084
  0
LINE
  8
0
 10
71.5286
 20
289.084
 11
71.375
 21
288.984
  0
LINE
  8
0
 10
71.375
 20
288.984
 11
71.2118
 21
288.901
  0
LINE
  8
0
 10
71.2118
 20
288.901
 11
71.0408
 21
288.836
  0
LINE
  8
0
 10
71.0408
 20
288.836
 11
70.8638
 21
288.788
  0
LINE
  8
0
 10
70.8638
 20
288.788
 11
70.6829
 21
288.76
  0
LINE
  8
0
 10
70.6829
 20
288.76
 11
70.5
 21
288.75
  0
LINE
  8
0
 10
70.5
 20
288.75
 11
70.3171
 21
288.76
  0
LINE
  8
0
 10
-39.6829
 20
288.76
 11
-39.8638
 21
288.788
  0
LINE
  8
0
 10
-39.8638
 20
288.788
 11
-40.0408
 21
288.836
  0
LINE
  8
0
 10
-40.0408
 20
288.836
 11
-40.2118
 21
288.901
  0
LINE
  8
0
 10
-40.2118
 20
288.901
 11
-40.375
 21
288.984
  0
LINE
  8
0
 10
-40.375
 20
288.984
 11
-40.5286
 21
289.084
  0
LINE
  8
0
 10
-40.5286
 20
289.084
 11
-40.671
 21
289.199
  0
LINE
  8
0
 10
-40.671
 20
289.199
 11
-40.8005
 21
289.329
  0
LINE
  8
0
 10
-40.8005
 20
289.329
 11
-40.9158
 21
289.471
  0
LINE
  8
0
 10
-40.9158
 20
289.471
 11
-41.0155
 21
289.625
  0
LINE
  8
0
 10
-41.0155
 20
289.625
 11
-41.0987
 21
289.788
  0
LINE
  8
0
 10
-41.0987
 20
289.788
 11
-41.1643
 21
289.959
  0
LINE
  8
0
 10
-41.1643
 20
289.959
 11
-41.2117
 21
290.136
  0
LINE
  8
0
 10
-41.2117
 20
290.136
 11
-41.2404
 21
290.317
  0
LINE
  8
0
 10
-41.2404
 20
290.317
 11
-41.25
 21
290.5
  0
LINE
  8
0
 10
-41.25
 20
290.5
 11
-41.2404
 21
290.683
  0
LINE
  8
0
 10
-41.2404
 20
290.683
 11
-41.2117
 21
290.864
  0
LINE
  8
0
 10
-41.2117
 20
290.864
 11
-41.1643
 21
291.041
  0
LINE
  8
0
 10
-41.1643
 20
291.041
 11
-41.0987
 21
291.212
  0
LINE
  8
0
 10
-41.0987
 20
291.212
 11
-41.0155
 21
291.375
  0
LINE
  8
0
 10
-41.0155
 20
291.375
 11
-40.9158
 21
291.529
  0
LINE
  8
0
 10
-40.9158
 20
291.529
 11
-40.8005
 21
291.671
  0
LINE
  8
0
 10
-40.8005
 20
291.671
 11
-40.671
 21
291.801
  0
LINE
  8
0
 10
-40.671
 20
291.801
 11
-40.5286
 21
291.916
  0
LINE
  8
0
 10
-40.5286
 20
291.916
 11
-40.375
 21
292.016
  0
LINE
  8
0
 10
-40.375
 20
292.016
 11
-40.2118
 21
292.099
  0
LINE
  8
0
 10
-40.2118
 20
292.099
 11
-40.0408
 21
292.164
  0
LINE
  8
0
 10
-40.0408
 20
292.164
 11
-39.8638
 21
292.212
  0
LINE
  8
0
 10
-39.8638
 20
292.212
 11
-39.6829
 21
292.24
  0
LINE
  8
0
 10
-39.6829
 20
292.24
 11
-39.5
 21
292.25
  0
LINE
  8
0
 10
-39.5
 20
292.25
 11
-39.3171
 21
292.24
  0
LINE
  8
0
 10
-39.3171
 20
292.24
 11
-39.1362
 21
292.212
  0
LINE
  8
0
 10
-39.1362
 20
292.212
 11
-38.9592
 21
292.164
  0
LINE
  8
0
 10
-38.9592
 20
292.164
 11
-38.7882
 21
292.099
  0
LINE
  8
0
 10
-38.7882
 20
292.099
 11
-38.625
 21
292.016
  0
LINE
  8
0
 10
-38.625
 20
292.016
 11
-38.4714
 21
291.916
  0
LINE
  8
0
 10
-38.4714
 20
291.916
 11
-38.329
 21
291.801
  0
LINE
  8
0
 10
-38.329
 20
291.801
 11
-38.1995
 21
291.671
  0
LINE
  8
0
 10
-38.1995
 20
291.671
 11
-38.0842
 21
291.529
  0
LINE
  8
0
 10
-38.0842
 20
291.529
 11
-37.9845
 21
291.375
  0
LINE
  8
0
 10
-37.9845
 20
291.375
 11
-37.9013
 21
291.212
  0
LINE
  8
0
 10
-37.9013
 20
291.212
 11
-37.8356
 21
291.041
  0
LINE
  8
0
 10
-37.8356
 20
291.041
 11
-37.7882
 21
290.864
  0
LINE
  8
0
 10
-37.7882
 20
290.864
 11
-37.7596
 21
290.683
  0
LINE
  8
0
 10
-37.7596
 20
290.683
 11
-37.75
 21
290.5
  0
LINE
  8
0
 10
-37.75
 20
290.5
 11
-37.7596
 21
290.317
  0
LINE
  8
0
 10
-37.7596
 20
290.317
 11
-37.7882
 21
290.136
  0
LINE
  8
0
 10
-37.7882
 20
290.136
 11
-37.8356
 21
289.959
  0
LINE
  8
0
 10
-37.8356
 20
289.959
 11
-37.9013
 21
289.788
  0
LINE
  8
0
 10
-37.9013
 20
289.788
 11
-37.9845
 21
289.625
  0
LINE
  8
0
 10
-37.9845
 20
289.625
 11
-38.0842
 21
289.471
  0
LINE
  8
0
 10
-38.0842
 20
289.471
 11
-38.1995
 21
289.329
  0
LINE
  8
0
 10
-38.1995
 20
289.329
 11
-38.329
 21
289.199
  0
LINE
  8
0
 10
-38.329
 20
289.199
 11
-38.4714
 21
289.084
  0
LINE
  8
0
 10
-38.4714
 20
289.084
 11
-38.625
 21
288.984
  0
LINE
  8
0
 10
-38.625
 20
288.984
 11
-38.7882
 21
288.901
  0
LINE
  8
0
 10
-38.7882
 20
288.901
 11
-38.9592
 21
288.836
  0
LINE
  8
0
 10
-38.9592
 20
288.836
 11
-39.1362
 21
288.788
  0
LINE
  8
0
 10
-39.1362
 20
288.788
 11
-39.3171
 21
288.76
  0
LINE
  8
0
 10
-39.3171
 20
288.76
 11
-39.5
 21
288.75
  0
LINE
  8
0
 10
-39.5
 20
288.75
 11
-39.6829
 21
288.76
  0
LINE
  8
0
 10
-70.5
 20
288.75
 11
-70.6829
 21
288.76
  0
LINE
  8
0
 10
-70.6829
 20
288.76
 11
-70.8638
 21
288.788
  0
LINE
  8
0
 10
-70.8638
 20
288.788
 11
-71.0408
 21
288.836
  0
LINE
  8
0
 10
-71.0408
 20
288.836
 11
-71.2118
 21
288.901
  0
LINE
  8
0
 10
-71.2118
 20
288.901
 11
-71.375
 21
288.984
  0
LINE
  8
0
 10
-71.375
 20
288.984
 11
-71.5286
 21
289.084
  0
LINE
  8
0
 10
-71.5286
 20
289.084
 11
-71.671
 21
289.199
  0
LINE
  8
0
 10
-71.671
 20
289.199
 11
-71.8005
 21
289.329
  0
LINE
  8
0
 10
-71.8005
 20
289.329
 11
-71.9158
 21
289.471
  0
LINE
  8
0
 10
-71.9158
 20
289.471
 11
-72.0155
 21
289.625
  0
LINE
  8
0
 10
-72.0155
 20
289.625
 11
-72.0987
 21
289.788
  0
LINE
  8
0
 10
-72.0987
 20
289.788
 11
-72.1644
 21
289.959
  0
LINE
  8
0
 10
-72.1644
 20
289.959
 11
-72.2118
 21
290.136
  0
LINE
  8
0
 10
-72.2118
 20
290.136
 11
-72.2404
 21
290.317
  0
LINE
  8
0
 10
-72.2404
 20
290.317
 11
-72.25
 21
290.5
  0
LINE
  8
0
 10
-72.25
 20
290.5
 11
-72.2404
 21
290.683
  0
LINE
  8
0
 10
-72.2404
 20
290.683
 11
-72.2118
 21
290.864
  0
LINE
  8
0
 10
-72.2118
 20
290.864
 11
-72.1644
 21
291.041
  0
LINE
  8
0
 10
-72.1644
 20
291.041
 11
-72.0987
 21
291.212
  0
LINE
  8
0
 10
-72.0987
 20
291.212
 11
-72.0155
 21
291.375
  0
LINE
  8
0
 10
-72.0155
 20
291.375
 11
-71.9158
 21
291.529
  0
LINE
  8
0
 10
-71.9158
 20
291.529
 11
-71.8005
 21
291.671
  0
LINE
  8
0
 10
-71.8005
 20
291.671
 11
-71.671
 21
291.801
  0
LINE
  8
0
 10
-71.671
 20
291.801
 11
-71.5286
 21
291.916
  0
LINE
  8
0
 10
-71.5286
 20
291.916
 11
-71.375
 21
292.016
  0
LINE
  8
0
 10
-71.375
 20
292.016
 11
-71.2118
 21
292.099
  0
LINE
  8
0
 10
-71.2118
 20
292.099
 11
-71.0408
 21
292.164
  0
LINE
  8
0
 10
-71.0408
 20
292.164
 11
-70.8638
 21
292.212
  0
LINE
  8
0
 10
-70.8638
 20
292.212
 11
-70.6829
 21
292.24
  0
LINE
  8
0
 10
-70.6829
 20
292.24
 11
-70.5
 21
292.25
  0
LINE
  8
0
 10
-70.5
 20
292.25
 11
-70.3171
 21
292.24
  0
LINE
  8
0
 10
-70.3171
 20
292.24
 11
-70.1362
 21
292.212
  0
LINE
  8
0
 10
-70.1362
 20
292.212
 11
-69.9592
 21
292.164
  0
LINE
  8
0
 10
-69.9592
 20
292.164
 11
-69.7882
 21
292.099
  0
LINE
  8
0
 10
-69.7882
 20
292.099
 11
-69.625
 21
292.016
  0
LINE
  8
0
 10
-69.625
 20
292.016
 11
-69.4714
 21
291.916
  0
LINE
  8
0
 10
-69.4714
 20
291.916
 11
-69.329
 21
291.801
  0
LINE
  8
0
 10
-69.329
 20
291.801
 11
-69.1995
 21
291.671
  0
LINE
  8
0
 10
-69.1995
 20
291.671
 11
-69.0842
 21
291.529
  0
LINE
  8
0
 10
-69.0842
 20
291.529
 11
-68.9845
 21
291.375
  0
LINE
  8
0
 10
-68.9845
 20
291.375
 11
-68.9013
 21
291.212
  0
LINE
  8
0
 10
-68.9013
 20
291.212
 11
-68.8356
 21
291.041
  0
LINE
  8
0
 10
-68.8356
 20
291.041
 11
-68.7882
 21
290.864
  0
LINE
  8
0
 10
-68.7882
 20
290.864
 11
-68.7596
 21
290.683
  0
LINE
  8
0
 10
-68.7596
 20
290.683
 11
-68.75
 21
290.5
  0
LINE
  8
0
 10
-68.75
 20
290.5
 11
-68.7596
 21
290.317
  0
LINE
  8
0
 10
-68.7596
 20
290.317
 11
-68.7882
 21
290.136
  0
LINE
  8
0
 10
-68.7882
 20
290.136
 11
-68.8356
 21
289.959
  0
LINE
  8
0
 10
-68.8356
 20
289.959
 11
-68.9013
 21
289.788
  0
LINE
  8
0
 10
-68.9013
 20
289.788
 11
-68.9845
 21
289.625
  0
LINE
  8
0
 10
-68.9845
 20
289.625
 11
-69.0842
 21
289.471
  0
LINE
  8
0
 10
-69.0842
 20
289.471
 11
-69.1995
 21
289.329
  0
LINE
  8
0
 10
-69.1995
 20
289.329
 11
-69.329
 21
289.199
  0
LINE
  8
0
 10
-69.329
 20
289.199
 11
-69.4714
 21
289.084
  0
LINE
  8
0
 10
-69.4714
 20
289.084
 11
-69.625
 21
288.984
  0
LINE
  8
0
 10
-69.625
 20
288.984
 11
-69.7882
 21
288.901
  0
LINE
  8
0
 10
-69.7882
 20
288.901
 11
-69.9592
 21
288.836
  0
LINE
  8
0
 10
-69.9592
 20
288.836
 11
-70.1362
 21
288.788
  0
LINE
  8
0
 10
-70.1362
 20
288.788
 11
-70.3171
 21
288.76
  0
LINE
  8
0
 10
-70.3171
 20
288.76
 11
-70.5
 21
288.75
  0
LINE
  8
0
 10
39.3171
 20
288.76
 11
39.1362
 21
288.788
  0
LINE
  8
0
 10
39.1362
 20
288.788
 11
38.9592
 21
288.836
  0
LINE
  8
0
 10
38.9592
 20
288.836
 11
38.7882
 21
288.901
  0
LINE
  8
0
 10
38.7882
 20
288.901
 11
38.625
 21
288.984
  0
LINE
  8
0
 10
38.625
 20
288.984
 11
38.4714
 21
289.084
  0
LINE
  8
0
 10
38.4714
 20
289.084
 11
38.329
 21
289.199
  0
LINE
  8
0
 10
38.329
 20
289.199
 11
38.1995
 21
289.329
  0
LINE
  8
0
 10
38.1995
 20
289.329
 11
38.0842
 21
289.471
  0
LINE
  8
0
 10
38.0842
 20
289.471
 11
37.9845
 21
289.625
  0
LINE
  8
0
 10
37.9845
 20
289.625
 11
37.9013
 21
289.788
  0
LINE
  8
0
 10
37.9013
 20
289.788
 11
37.8356
 21
289.959
  0
LINE
  8
0
 10
37.8356
 20
289.959
 11
37.7882
 21
290.136
  0
LINE
  8
0
 10
37.7882
 20
290.136
 11
37.7596
 21
290.317
  0
LINE
  8
0
 10
37.7596
 20
290.317
 11
37.75
 21
290.5
  0
LINE
  8
0
 10
37.75
 20
290.5
 11
37.7596
 21
290.683
  0
LINE
  8
0
 10
37.7596
 20
290.683
 11
37.7882
 21
290.864
  0
LINE
  8
0
 10
37.7882
 20
290.864
 11
37.8356
 21
291.041
  0
LINE
  8
0
 10
37.8356
 20
291.041
 11
37.9013
 21
291.212
  0
LINE
  8
0
 10
37.9013
 20
291.212
 11
37.9845
 21
291.375
  0
LINE
  8
0
 10
37.9845
 20
291.375
 11
38.0842
 21
291.529
  0
LINE
  8
0
 10
38.0842
 20
291.529
 11
38.1995
 21
291.671
  0
LINE
  8
0
 10
38.1995
 20
291.671
 11
38.329
 21
291.801
  0
LINE
  8
0
 10
38.329
 20
291.801
 11
38.4714
 21
291.916
  0
LINE
  8
0
 10
38.4714
 20
291.916
 11
38.625
 21
292.016
  0
LINE
  8
0
 10
38.625
 20
292.016
 11
38.7882
 21
292.099
  0
LINE
  8
0
 10
38.7882
 20
292.099
 11
38.9592
 21
292.164
  0
LINE
  8
0
 10
38.9592
 20
292.164
 11
39.1362
 21
292.212
  0
LINE
  8
0
 10
39.1362
 20
292.212
 11
39.3171
 21
292.24
  0
LINE
  8
0
 10
39.3171
 20
292.24
 11
39.5
 21
292.25
  0
LINE
  8
0
 10
39.5
 20
292.25
 11
39.6829
 21
292.24
  0
LINE
  8
0
 10
39.6829
 20
292.24
 11
39.8638
 21
292.212
  0
LINE
  8
0
 10
39.8638
 20
292.212
 11
40.0408
 21
292.164
  0
LINE
  8
0
 10
40.0408
 20
292.164
 11
40.2118
 21
292.099
  0
LINE
  8
0
 10
40.2118
 20
292.099
 11
40.375
 21
292.016
  0
LINE
  8
0
 10
40.375
 20
292.016
 11
40.5286
 21
291.916
  0
LINE
  8
0
 10
40.5286
 20
291.916
 11
40.671
 21
291.801
  0
LINE
  8
0
 10
40.671
 20
291.801
 11
40.8005
 21
291.671
  0
LINE
  8
0
 10
40.8005
 20
291.671
 11
40.9158
 21
291.529
  0
LINE
  8
0
 10
40.9158
 20
291.529
 11
41.0155
 21
291.375
  0
LINE
  8
0
 10
41.0155
 20
291.375
 11
41.0987
 21
291.212
  0
LINE
  8
0
 10
41.0987
 20
291.212
 11
41.1643
 21
291.041
  0
LINE
  8
0
 10
41.1643
 20
291.041
 11
41.2117
 21
290.864
  0
LINE
  8
0
 10
41.2117
 20
290.864
 11
41.2404
 21
290.683
  0
LINE
  8
0
 10
41.2404
 20
290.683
 11
41.25
 21
290.5
  0
LINE
  8
0
 10
41.25
 20
290.5
 11
41.2404
 21
290.317
  0
LINE
  8
0
 10
41.2404
 20
290.317
 11
41.2117
 21
290.136
  0
LINE
  8
0
 10
41.2117
 20
290.136
 11
41.1643
 21
289.959
  0
LINE
  8
0
 10
41.1643
 20
289.959
 11
41.0987
 21
289.788
  0
LINE
  8
0
 10
41.0987
 20
289.788
 11
41.0155
 21
289.625
  0
LINE
  8
0
 10
41.0155
 20
289.625
 11
40.9158
 21
289.471
  0
LINE
  8
0
 10
40.9158
 20
289.471
 11
40.8005
 21
289.329
  0
LINE
  8
0
 10
40.8005
 20
289.329
 11
40.671
 21
289.199
  0
LINE
  8
0
 10
40.671
 20
289.199
 11
40.5286
 21
289.084
  0
LINE
  8
0
 10
40.5286
 20
289.084
 11
40.375
 21
288.984
  0
LINE
  8
0
 10
40.375
 20
288.984
 11
40.2118
 21
288.901
  0
LINE
  8
0
 10
40.2118
 20
288.901
 11
40.0408
 21
288.836
  0
LINE
  8
0
 10
40.0408
 20
288.836
 11
39.8638
 21
288.788
  0
LINE
  8
0
 10
39.8638
 20
288.788
 11
39.6829
 21
288.76
  0
LINE
  8
0
 10
39.6829
 20
288.76
 11
39.5
 21
288.75
  0
LINE
  8
0
 10
39.5
 20
288.75
 11
39.3171
 21
288.76
  0
LINE
  8
0
 10
53.7457
 20
263.066
 11
52.5051
 21
263.262
  0
LINE
  8
0
 10
52.5051
 20
263.262
 11
51.2918
 21
263.587
  0
LINE
  8
0
 10
51.2918
 20
263.587
 11
50.1192
 21
264.037
  0
LINE
  8
0
 10
50.1192
 20
264.037
 11
49
 21
264.608
  0
LINE
  8
0
 10
49
 20
264.608
 11
47.9466
 21
265.292
  0
LINE
  8
0
 10
47.9466
 20
265.292
 11
46.9704
 21
266.082
  0
LINE
  8
0
 10
46.9704
 20
266.082
 11
46.0823
 21
266.97
  0
LINE
  8
0
 10
46.0823
 20
266.97
 11
45.2918
 21
267.947
  0
LINE
  8
0
 10
45.2918
 20
267.947
 11
44.6077
 21
269
  0
LINE
  8
0
 10
44.6077
 20
269
 11
44.0374
 21
270.119
  0
LINE
  8
0
 10
44.0374
 20
270.119
 11
43.5873
 21
271.292
  0
LINE
  8
0
 10
43.5873
 20
271.292
 11
43.2622
 21
272.505
  0
LINE
  8
0
 10
43.2622
 20
272.505
 11
43.0657
 21
273.746
  0
LINE
  8
0
 10
43.0657
 20
273.746
 11
43
 21
275
  0
LINE
  8
0
 10
43
 20
275
 11
43.0657
 21
276.254
  0
LINE
  8
0
 10
43.0657
 20
276.254
 11
43.2622
 21
277.495
  0
LINE
  8
0
 10
43.2622
 20
277.495
 11
43.5873
 21
278.708
  0
LINE
  8
0
 10
43.5873
 20
278.708
 11
44.0374
 21
279.881
  0
LINE
  8
0
 10
44.0374
 20
279.881
 11
44.6077
 21
281
  0
LINE
  8
0
 10
44.6077
 20
281
 11
45.2918
 21
282.053
  0
LINE
  8
0
 10
45.2918
 20
282.053
 11
46.0823
 21
283.03
  0
LINE
  8
0
 10
46.0823
 20
283.03
 11
46.9704
 21
283.918
  0
LINE
  8
0
 10
46.9704
 20
283.918
 11
47.9466
 21
284.708
  0
LINE
  8
0
 10
47.9466
 20
284.708
 11
49
 21
285.392
  0
LINE
  8
0
 10
49
 20
285.392
 11
50.1192
 21
285.963
  0
LINE
  8
0
 10
50.1192
 20
285.963
 11
51.2918
 21
286.413
  0
LINE
  8
0
 10
51.2918
 20
286.413
 11
52.5051
 21
286.738
  0
LINE
  8
0
 10
52.5051
 20
286.738
 11
53.7457
 21
286.934
  0
LINE
  8
0
 10
53.7457
 20
286.934
 11
55
 21
287
  0
LINE
  8
0
 10
55
 20
287
 11
56.2543
 21
286.934
  0
LINE
  8
0
 10
56.2543
 20
286.934
 11
57.4949
 21
286.738
  0
LINE
  8
0
 10
57.4949
 20
286.738
 11
58.7082
 21
286.413
  0
LINE
  8
0
 10
58.7082
 20
286.413
 11
59.8808
 21
285.963
  0
LINE
  8
0
 10
59.8808
 20
285.963
 11
61
 21
285.392
  0
LINE
  8
0
 10
61
 20
285.392
 11
62.0534
 21
284.708
  0
LINE
  8
0
 10
62.0534
 20
284.708
 11
63.0296
 21
283.918
  0
LINE
  8
0
 10
63.0296
 20
283.918
 11
63.9177
 21
283.03
  0
LINE
  8
0
 10
63.9177
 20
283.03
 11
64.7082
 21
282.053
  0
LINE
  8
0
 10
64.7082
 20
282.053
 11
65.3923
 21
281
  0
LINE
  8
0
 10
65.3923
 20
281
 11
65.9625
 21
279.881
  0
LINE
  8
0
 10
65.9625
 20
279.881
 11
66.4127
 21
278.708
  0
LINE
  8
0
 10
66.4127
 20
278.708
 11
66.7378
 21
277.495
  0
LINE
  8
0
 10
66.7378
 20
277.495
 11
66.9343
 21
276.254
  0
LINE
  8
0
 10
66.9343
 20
276.254
 11
67
 21
275
  0
LINE
  8
0
 10
67
 20
275
 11
66.9343
 21
273.746
  0
LINE
  8
0
 10
66.9343
 20
273.746
 11
66.7378
 21
272.505
  0
LINE
  8
0
 10
66.7378
 20
272.505
 11
66.4127
 21
271.292
  0
LINE
  8
0
 10
66.4127
 20
271.292
 11
65.9625
 21
270.119
  0
LINE
  8
0
 10
65.9625
 20
270.119
 11
65.3923
 21
269
  0
LINE
  8
0
 10
65.3923
 20
269
 11
64.7082
 21
267.947
  0
LINE
  8
0
 10
64.7082
 20
267.947
 11
63.9177
 21
266.97
  0
LINE
  8
0
 10
63.9177
 20
266.97
 11
63.0296
 21
266.082
  0
LINE
  8
0
 10
63.0296
 20
266.082
 11
62.0534
 21
265.292
  0
LINE
  8
0
 10
62.0534
 20
265.292
 11
61
 21
264.608
  0
LINE
  8
0
 10
61
 20
264.608
 11
59.8808
 21
264.037
  0
LINE
  8
0
 10
59.8808
 20
264.037
 11
58.7082
 21
263.587
  0
LINE
  8
0
 10
58.7082
 20
263.587
 11
57.4949
 21
263.262
  0
LINE
  8
0
 10
57.4949
 20
263.262
 11
56.2543
 21
263.066
  0
LINE
  8
0
 10
56.2543
 20
263.066
 11
55
 21
263
  0
LINE
  8
0
 10
55
 20
263
 11
53.7457
 21
263.066
  0
LINE
  8
0
 10
-56.2543
 20
263.066
 11
-57.4949
 21
263.262
  0
LINE
  8
0
 10
-57.4949
 20
263.262
 11
-58.7082
 21
263.587
  0
LINE
  8
0
 10
-58.7082
 20
263.587
 11
-59.8808
 21
264.037
  0
LINE
  8
0
 10
-59.8808
 20
264.037
 11
-61
 21
264.608
  0
LINE
  8
0
 10
-61
 20
264.608
 11
-62.0534
 21
265.292
  0
LINE
  8
0
 10
-62.0534
 20
265.292
 11
-63.0296
 21
266.082
  0
LINE
  8
0
 10
-63.0296
 20
266.082
 11
-63.9177
 21
266.97
  0
LINE
  8
0
 10
-63.9177
 20
266.97
 11
-64.7082
 21
267.947
  0
LINE
  8
0
 10
-64.7082
 20
267.947
 11
-65.3923
 21
269
  0
LINE
  8
0
 10
-65.3923
 20
269
 11
-65.9625
 21
270.119
  0
LINE
  8
0
 10
-65.9625
 20
270.119
 11
-66.4127
 21
271.292
  0
LINE
  8
0
 10
-66.4127
 20
271.292
 11
-66.7378
 21
272.505
  0
LINE
  8
0
 10
-66.7378
 20
272.505
 11
-66.9343
 21
273.746
  0
LINE
  8
0
 10
-66.9343
 20
273.746
 11
-67
 21
275
  0
LINE
  8
0
 10
-67
 20
275
 11
-66.9343
 21
276.254
  0
LINE
  8
0
 10
-66.9343
 20
276.254
 11
-66.7378
 21
277.495
  0
LINE
  8
0
 10
-66.7378
 20
277.495
 11
-66.4127
 21
278.708
  0
LINE
  8
0
 10
-66.4127
 20
278.708
 11
-65.9625
 21
279.881
  0
LINE
  8
0
 10
-65.9625
 20
279.881
 11
-65.3923
 21
281
  0
LINE
  8
0
 10
-65.3923
 20
281
 11
-64.7082
 21
282.053
  0
LINE
  8
0
 10
-64.7082
 20
282.053
 11
-63.9177
 21
283.03
  0
LINE
  8
0
 10
-63.9177
 20
283.03
 11
-63.0296
 21
283.918
  0
LINE
  8
0
 10
-63.0296
 20
283.918
 11
-62.0534
 21
284.708
  0
LINE
  8
0
 10
-62.0534
 20
284.708
 11
-61
 21
285.392
  0
LINE
  8
0
 10
-61
 20
285.392
 11
-59.8808
 21
285.963
  0
LINE
  8
0
 10
-59.8808
 20
285.963
 11
-58.7082
 21
286.413
  0
LINE
  8
0
 10
-58.7082
 20
286.413
 11
-57.4949
 21
286.738
  0
LINE
  8
0
 10
-57.4949
 20
286.738
 11
-56.2543
 21
286.934
  0
LINE
  8
0
 10
-56.2543
 20
286.934
 11
-55
 21
287
  0
LINE
  8
0
 10
-55
 20
287
 11
-53.7457
 21
286.934
  0
LINE
  8
0
 10
-53.7457
 20
286.934
 11
-52.5051
 21
286.738
  0
LINE
  8
0
 10
-52.5051
 20
286.738
 11
-51.2918
 21
286.413
  0
LINE
  8
0
 10
-51.2918
 20
286.413
 11
-50.1192
 21
285.963
  0
LINE
  8
0
 10
-50.1192
 20
285.963
 11
-49
 21
285.392
  0
LINE
  8
0
 10
-49
 20
285.392
 11
-47.9466
 21
284.708
  0
LINE
  8
0
 10
-47.9466
 20
284.708
 11
-46.9704
 21
283.918
  0
LINE
  8
0
 10
-46.9704
 20
283.918
 11
-46.0823
 21
283.03
  0
LINE
  8
0
 10
-46.0823
 20
283.03
 11
-45.2918
 21
282.053
  0
LINE
  8
0
 10
-45.2918
 20
282.053
 11
-44.6077
 21
281
  0
LINE
  8
0
 10
-44.6077
 20
281
 11
-44.0374
 21
279.881
  0
LINE
  8
0
 10
-44.0374
 20
279.881
 11
-43.5873
 21
278.708
  0
LINE
  8
0
 10
-43.5873
 20
278.708
 11
-43.2622
 21
277.495
  0
LINE
  8
0
 10
-43.2622
 20
277.495
 11
-43.0657
 21
276.254
  0
LINE
  8
0
 10
-43.0657
 20
276.254
 11
-43
 21
275
  0
LINE
  8
0
 10
-43
 20
275
 11
-43.0657
 21
273.746
  0
LINE
  8
0
 10
-43.0657
 20
273.746
 11
-43.2622
 21
272.505
  0
LINE
  8
0
 10
-43.2622
 20
272.505
 11
-43.5873
 21
271.292
  0
LINE
  8
0
 10
-43.5873
 20
271.292
 11
-44.0374
 21
270.119
  0
LINE
  8
0
 10
-44.0374
 20
270.119
 11
-44.6077
 21
269
  0
LINE
  8
0
 10
-44.6077
 20
269
 11
-45.2918
 21
267.947
  0
LINE
  8
0
 10
-45.2918
 20
267.947
 11
-46.0823
 21
266.97
  0
LINE
  8
0
 10
-46.0823
 20
266.97
 11
-46.9704
 21
266.082
  0
LINE
  8
0
 10
-46.9704
 20
266.082
 11
-47.9466
 21
265.292
  0
LINE
  8
0
 10
-47.9466
 20
265.292
 11
-49
 21
264.608
  0
LINE
  8
0
 10
-49
 20
264.608
 11
-50.1192
 21
264.037
  0
LINE
  8
0
 10
-50.1192
 20
264.037
 11
-51.2918
 21
263.587
  0
LINE
  8
0
 10
-51.2918
 20
263.587
 11
-52.5051
 21
263.262
  0
LINE
  8
0
 10
-52.5051
 20
263.262
 11
-53.7457
 21
263.066
  0
LINE
  8
0
 10
-53.7457
 20
263.066
 11
-55
 21
263
  0
LINE
  8
0
 10
-55
 20
263
 11
-56.2543
 21
263.066
  0
LINE
  8
0
 10
-0.522629
 20
260.027
 11
-1.03955
 21
260.109
  0
LINE
  8
0
 10
-1.03955
 20
260.109
 11
-1.54507
 21
260.245
  0
LINE
  8
0
 10
-1.54507
 20
260.245
 11
-2.03368
 21
260.432
  0
LINE
  8
0
 10
-2.03368
 20
260.432
 11
-2.5
 21
260.67
  0
LINE
  8
0
 10
-2.5
 20
260.67
 11
-2.93892
 21
260.955
  0
LINE
  8
0
 10
-2.93892
 20
260.955
 11
-3.34564
 21
261.284
  0
LINE
  8
0
 10
-3.34564
 20
261.284
 11
-3.71571
 21
261.654
  0
LINE
  8
0
 10
-3.71571
 20
261.654
 11
-4.04507
 21
262.061
  0
LINE
  8
0
 10
-4.04507
 20
262.061
 11
-4.33012
 21
262.5
  0
LINE
  8
0
 10
-4.33012
 20
262.5
 11
-4.56772
 21
262.966
  0
LINE
  8
0
 10
-4.56772
 20
262.966
 11
-4.75528
 21
263.455
  0
LINE
  8
0
 10
-4.75528
 20
263.455
 11
-4.89073
 21
263.96
  0
LINE
  8
0
 10
-4.89073
 20
263.96
 11
-4.9726
 21
264.477
  0
LINE
  8
0
 10
-4.9726
 20
264.477
 11
-5
 21
265
  0
LINE
  8
0
 10
-5
 20
265
 11
-4.9726
 21
265.523
  0
LINE
  8
0
 10
-4.9726
 20
265.523
 11
-4.89073
 21
266.04
  0
LINE
  8
0
 10
-4.89073
 20
266.04
 11
-4.75528
 21
266.545
  0
LINE
  8
0
 10
-4.75528
 20
266.545
 11
-4.56772
 21
267.034
  0
LINE
  8
0
 10
-4.56772
 20
267.034
 11
-4.33012
 21
267.5
  0
LINE
  8
0
 10
-4.33012
 20
267.5
 11
-4.04507
 21
267.939
  0
LINE
  8
0
 10
-4.04507
 20
267.939
 11
-3.71571
 21
268.346
  0
LINE
  8
0
 10
-3.71571
 20
268.346
 11
-3.34564
 21
268.716
  0
LINE
  8
0
 10
-3.34564
 20
268.716
 11
-2.93892
 21
269.045
  0
LINE
  8
0
 10
-2.93892
 20
269.045
 11
-2.5
 21
269.33
  0
LINE
  8
0
 10
-2.5
 20
269.33
 11
-2.03368
 21
269.568
  0
LINE
  8
0
 10
-2.03368
 20
269.568
 11
-1.54507
 21
269.755
  0
LINE
  8
0
 10
-1.54507
 20
269.755
 11
-1.03955
 21
269.891
  0
LINE
  8
0
 10
-1.03955
 20
269.891
 11
-0.522629
 21
269.973
  0
LINE
  8
0
 10
-0.522629
 20
269.973
 11
0
 21
270
  0
LINE
  8
0
 10
0
 20
270
 11
0.522629
 21
269.973
  0
LINE
  8
0
 10
0.522629
 20
269.973
 11
1.03955
 21
269.891
  0
LINE
  8
0
 10
1.03955
 20
269.891
 11
1.54507
 21
269.755
  0
LINE
  8
0
 10
1.54507
 20
269.755
 11
2.03368
 21
269.568
  0
LINE
  8
0
 10
2.03368
 20
269.568
 11
2.5
 21
269.33
  0
LINE
  8
0
 10
2.5
 20
269.33
 11
2.93892
 21
269.045
  0
LINE
  8
0
 10
2.93892
 20
269.045
 11
3.34564
 21
268.716
  0
LINE
  8
0
 10
3.34564
 20
268.716
 11
3.71571
 21
268.346
  0
LINE
  8
0
 10
3.71571
 20
268.346
 11
4.04507
 21
267.939
  0
LINE
  8
0
 10
4.04507
 20
267.939
 11
4.33012
 21
267.5
  0
LINE
  8
0
 10
4.33012
 20
267.5
 11
4.56772
 21
267.034
  0
LINE
  8
0
 10
4.56772
 20
267.034
 11
4.75528
 21
266.545
  0
LINE
  8
0
 10
4.75528
 20
266.545
 11
4.89073
 21
266.04
  0
LINE
  8
0
 10
4.89073
 20
266.04
 11
4.9726
 21
265.523
  0
LINE
  8
0
 10
4.9726
 20
265.523
 11
5
 21
265
  0
LINE
  8
0
 10
5
 20
265
 11
4.9726
 21
264.477
  0
LINE
  8
0
 10
4.9726
 20
264.477
 11
4.89073
 21
263.96
  0
LINE
  8
0
 10
4.89073
 20
263.96
 11
4.75528
 21
263.455
  0
LINE
  8
0
 10
4.75528
 20
263.455
 11
4.56772
 21
262.966
  0
LINE
  8
0
 10
4.56772
 20
262.966
 11
4.33012
 21
262.5
  0
LINE
  8
0
 10
4.33012
 20
262.5
 11
4.04507
 21
262.061
  0
LINE
  8
0
 10
4.04507
 20
262.061
 11
3.71571
 21
261.654
  0
LINE
  8
0
 10
3.71571
 20
261.654
 11
3.34564
 21
261.284
  0
LINE
  8
0
 10
3.34564
 20
261.284
 11
2.93892
 21
260.955
  0
LINE
  8
0
 10
2.93892
 20
260.955
 11
2.5
 21
260.67
  0
LINE
  8
0
 10
2.5
 20
260.67
 11
2.03368
 21
260.432
  0
LINE
  8
0
 10
2.03368
 20
260.432
 11
1.54507
 21
260.245
  0
LINE
  8
0
 10
1.54507
 20
260.245
 11
1.03955
 21
260.109
  0
LINE
  8
0
 10
1.03955
 20
260.109
 11
0.522629
 21
260.027
  0
LINE
  8
0
 10
0.522629
 20
260.027
 11
0
 21
260
  0
LINE
  8
0
 10
0
 20
260
 11
-0.522629
 21
260.027
  0
LINE
  8
0
 10
-39.6829
 20
257.76
 11
-39.8638
 21
257.788
  0
LINE
  8
0
 10
-39.8638
 20
257.788
 11
-40.0408
 21
257.836
  0
LINE
  8
0
 10
-40.0408
 20
257.836
 11
-40.2118
 21
257.901
  0
LINE
  8
0
 10
-40.2118
 20
257.901
 11
-40.375
 21
257.984
  0
LINE
  8
0
 10
-40.375
 20
257.984
 11
-40.5286
 21
258.084
  0
LINE
  8
0
 10
-40.5286
 20
258.084
 11
-40.671
 21
258.199
  0
LINE
  8
0
 10
-40.671
 20
258.199
 11
-40.8005
 21
258.329
  0
LINE
  8
0
 10
-40.8005
 20
258.329
 11
-40.9158
 21
258.471
  0
LINE
  8
0
 10
-40.9158
 20
258.471
 11
-41.0155
 21
258.625
  0
LINE
  8
0
 10
-41.0155
 20
258.625
 11
-41.0987
 21
258.788
  0
LINE
  8
0
 10
-41.0987
 20
258.788
 11
-41.1643
 21
258.959
  0
LINE
  8
0
 10
-41.1643
 20
258.959
 11
-41.2117
 21
259.136
  0
LINE
  8
0
 10
-41.2117
 20
259.136
 11
-41.2404
 21
259.317
  0
LINE
  8
0
 10
-41.2404
 20
259.317
 11
-41.25
 21
259.5
  0
LINE
  8
0
 10
-41.25
 20
259.5
 11
-41.2404
 21
259.683
  0
LINE
  8
0
 10
-41.2404
 20
259.683
 11
-41.2117
 21
259.864
  0
LINE
  8
0
 10
-41.2117
 20
259.864
 11
-41.1643
 21
260.041
  0
LINE
  8
0
 10
-41.1643
 20
260.041
 11
-41.0987
 21
260.212
  0
LINE
  8
0
 10
-41.0987
 20
260.212
 11
-41.0155
 21
260.375
  0
LINE
  8
0
 10
-41.0155
 20
260.375
 11
-40.9158
 21
260.529
  0
LINE
  8
0
 10
-40.9158
 20
260.529
 11
-40.8005
 21
260.671
  0
LINE
  8
0
 10
-40.8005
 20
260.671
 11
-40.671
 21
260.801
  0
LINE
  8
0
 10
-40.671
 20
260.801
 11
-40.5286
 21
260.916
  0
LINE
  8
0
 10
-40.5286
 20
260.916
 11
-40.375
 21
261.016
  0
LINE
  8
0
 10
-40.375
 20
261.016
 11
-40.2118
 21
261.099
  0
LINE
  8
0
 10
-40.2118
 20
261.099
 11
-40.0408
 21
261.164
  0
LINE
  8
0
 10
-40.0408
 20
261.164
 11
-39.8638
 21
261.212
  0
LINE
  8
0
 10
-39.8638
 20
261.212
 11
-39.6829
 21
261.24
  0
LINE
  8
0
 10
-39.6829
 20
261.24
 11
-39.5
 21
261.25
  0
LINE
  8
0
 10
-39.5
 20
261.25
 11
-39.3171
 21
261.24
  0
LINE
  8
0
 10
-39.3171
 20
261.24
 11
-39.1362
 21
261.212
  0
LINE
  8
0
 10
-39.1362
 20
261.212
 11
-38.9592
 21
261.164
  0
LINE
  8
0
 10
-38.9592
 20
261.164
 11
-38.7882
 21
261.099
  0
LINE
  8
0
 10
-38.7882
 20
261.099
 11
-38.625
 21
261.016
  0
LINE
  8
0
 10
-38.625
 20
261.016
 11
-38.4714
 21
260.916
  0
LINE
  8
0
 10
-38.4714
 20
260.916
 11
-38.329
 21
260.801
  0
LINE
  8
0
 10
-38.329
 20
260.801
 11
-38.1995
 21
260.671
  0
LINE
  8
0
 10
-38.1995
 20
260.671
 11
-38.0842
 21
260.529
  0
LINE
  8
0
 10
-38.0842
 20
260.529
 11
-37.9845
 21
260.375
  0
LINE
  8
0
 10
-37.9845
 20
260.375
 11
-37.9013
 21
260.212
  0
LINE
  8
0
 10
-37.9013
 20
260.212
 11
-37.8356
 21
260.041
  0
LINE
  8
0
 10
-37.8356
 20
260.041
 11
-37.7882
 21
259.864
  0
LINE
  8
0
 10
-37.7882
 20
259.864
 11
-37.7596
 21
259.683
  0
LINE
  8
0
 10
-37.7596
 20
259.683
 11
-37.75
 21
259.5
  0
LINE
  8
0
 10
-37.75
 20
259.5
 11
-37.7596
 21
259.317
  0
LINE
  8
0
 10
-37.7596
 20
259.317
 11
-37.7882
 21
259.136
  0
LINE
  8
0
 10
-37.7882
 20
259.136
 11
-37.8356
 21
258.959
  0
LINE
  8
0
 10
-37.8356
 20
258.959
 11
-37.9013
 21
258.788
  0
LINE
  8
0
 10
-37.9013
 20
258.788
 11
-37.9845
 21
258.625
  0
LINE
  8
0
 10
-37.9845
 20
258.625
 11
-38.0842
 21
258.471
  0
LINE
  8
0
 10
-38.0842
 20
258.471
 11
-38.1995
 21
258.329
  0
LINE
  8
0
 10
-38.1995
 20
258.329
 11
-38.329
 21
258.199
  0
LINE
  8
0
 10
-38.329
 20
258.199
 11
-38.4714
 21
258.084
  0
LINE
  8
0
 10
-38.4714
 20
258.084
 11
-38.625
 21
257.984
  0
LINE
  8
0
 10
-38.625
 20
257.984
 11
-38.7882
 21
257.901
  0
LINE
  8
0
 10
-38.7882
 20
257.901
 11
-38.9592
 21
257.836
  0
LINE
  8
0
 10
-38.9592
 20
257.836
 11
-39.1362
 21
257.788
  0
LINE
  8
0
 10
-39.1362
 20
257.788
 11
-39.3171
 21
257.76
  0
LINE
  8
0
 10
-39.3171
 20
257.76
 11
-39.5
 21
257.75
  0
LINE
  8
0
 10
-39.5
 20
257.75
 11
-39.6829
 21
257.76
  0
LINE
  8
0
 10
70.3171
 20
257.76
 11
70.1362
 21
257.788
  0
LINE
  8
0
 10
70.1362
 20
257.788
 11
69.9592
 21
257.836
  0
LINE
  8
0
 10
69.9592
 20
257.836
 11
69.7882
 21
257.901
  0
LINE
  8
0
 10
69.7882
 20
257.901
 11
69.625
 21
257.984
  0
LINE
  8
0
 10
69.625
 20
257.984
 11
69.4714
 21
258.084
  0
LINE
  8
0
 10
69.4714
 20
258.084
 11
69.329
 21
258.199
  0
LINE
  8
0
 10
69.329
 20
258.199
 11
69.1995
 21
258.329
  0
LINE
  8
0
 10
69.1995
 20
258.329
 11
69.0842
 21
258.471
  0
LINE
  8
0
 10
69.0842
 20
258.471
 11
68.9845
 21
258.625
  0
LINE
  8
0
 10
68.9845
 20
258.625
 11
68.9013
 21
258.788
  0
LINE
  8
0
 10
68.9013
 20
258.788
 11
68.8356
 21
258.959
  0
LINE
  8
0
 10
68.8356
 20
258.959
 11
68.7882
 21
259.136
  0
LINE
  8
0
 10
68.7882
 20
259.136
 11
68.7596
 21
259.317
  0
LINE
  8
0
 10
68.7596
 20
259.317
 11
68.75
 21
259.5
  0
LINE
  8
0
 10
68.75
 20
259.5
 11
68.7596
 21
259.683
  0
LINE
  8
0
 10
68.7596
 20
259.683
 11
68.7882
 21
259.864
  0
LINE
  8
0
 10
68.7882
 20
259.864
 11
68.8356
 21
260.041
  0
LINE
  8
0
 10
68.8356
 20
260.041
 11
68.9013
 21
260.212
  0
LINE
  8
0
 10
68.9013
 20
260.212
 11
68.9845
 21
260.375
  0
LINE
  8
0
 10
68.9845
 20
260.375
 11
69.0842
 21
260.529
  0
LINE
  8
0
 10
69.0842
 20
260.529
 11
69.1995
 21
260.671
  0
LINE
  8
0
 10
69.1995
 20
260.671
 11
69.329
 21
260.801
  0
LINE
  8
0
 10
69.329
 20
260.801
 11
69.4714
 21
260.916
  0
LINE
  8
0
 10
69.4714
 20
260.916
 11
69.625
 21
261.016
  0
LINE
  8
0
 10
69.625
 20
261.016
 11
69.7882
 21
261.099
  0
LINE
  8
0
 10
69.7882
 20
261.099
 11
69.9592
 21
261.164
  0
LINE
  8
0
 10
69.9592
 20
261.164
 11
70.1362
 21
261.212
  0
LINE
  8
0
 10
70.1362
 20
261.212
 11
70.3171
 21
261.24
  0
LINE
  8
0
 10
70.3171
 20
261.24
 11
70.5
 21
261.25
  0
LINE
  8
0
 10
70.5
 20
261.25
 11
70.6829
 21
261.24
  0
LINE
  8
0
 10
70.6829
 20
261.24
 11
70.8638
 21
261.212
  0
LINE
  8
0
 10
70.8638
 20
261.212
 11
71.0408
 21
261.164
  0
LINE
  8
0
 10
71.0408
 20
261.164
 11
71.2118
 21
261.099
  0
LINE
  8
0
 10
71.2118
 20
261.099
 11
71.375
 21
261.016
  0
LINE
  8
0
 10
71.375
 20
261.016
 11
71.5286
 21
260.916
  0
LINE
  8
0
 10
71.5286
 20
260.916
 11
71.671
 21
260.801
  0
LINE
  8
0
 10
71.671
 20
260.801
 11
71.8005
 21
260.671
  0
LINE
  8
0
 10
71.8005
 20
260.671
 11
71.9158
 21
260.529
  0
LINE
  8
0
 10
71.9158
 20
260.529
 11
72.0155
 21
260.375
  0
LINE
  8
0
 10
72.0155
 20
260.375
 11
72.0987
 21
260.212
  0
LINE
  8
0
 10
72.0987
 20
260.212
 11
72.1644
 21
260.041
  0
LINE
  8
0
 10
72.1644
 20
260.041
 11
72.2118
 21
259.864
  0
LINE
  8
0
 10
72.2118
 20
259.864
 11
72.2404
 21
259.683
  0
LINE
  8
0
 10
72.2404
 20
259.683
 11
72.25
 21
259.5
  0
LINE
  8
0
 10
72.25
 20
259.5
 11
72.2404
 21
259.317
  0
LINE
  8
0
 10
72.2404
 20
259.317
 11
72.2118
 21
259.136
  0
LINE
  8
0
 10
72.2118
 20
259.136
 11
72.1644
 21
258.959
  0
LINE
  8
0
 10
72.1644
 20
258.959
 11
72.0987
 21
258.788
  0
LINE
  8
0
 10
72.0987
 20
258.788
 11
72.0155
 21
258.625
  0
LINE
  8
0
 10
72.0155
 20
258.625
 11
71.9158
 21
258.471
  0
LINE
  8
0
 10
71.9158
 20
258.471
 11
71.8005
 21
258.329
  0
LINE
  8
0
 10
71.8005
 20
258.329
 11
71.671
 21
258.199
  0
LINE
  8
0
 10
71.671
 20
258.199
 11
71.5286
 21
258.084
  0
LINE
  8
0
 10
71.5286
 20
258.084
 11
71.375
 21
257.984
  0
LINE
  8
0
 10
71.375
 20
257.984
 11
71.2118
 21
257.901
  0
LINE
  8
0
 10
71.2118
 20
257.901
 11
71.0408
 21
257.836
  0
LINE
  8
0
 10
71.0408
 20
257.836
 11
70.8638
 21
257.788
  0
LINE
  8
0
 10
70.8638
 20
257.788
 11
70.6829
 21
257.76
  0
LINE
  8
0
 10
70.6829
 20
257.76
 11
70.5
 21
257.75
  0
LINE
  8
0
 10
70.5
 20
257.75
 11
70.3171
 21
257.76
  0
LINE
  8
0
 10
39.3171
 20
257.76
 11
39.1362
 21
257.788
  0
LINE
  8
0
 10
39.1362
 20
257.788
 11
38.9592
 21
257.836
  0
LINE
  8
0
 10
38.9592
 20
257.836
 11
38.7882
 21
257.901
  0
LINE
  8
0
 10
38.7882
 20
257.901
 11
38.625
 21
257.984
  0
LINE
  8
0
 10
38.625
 20
257.984
 11
38.4714
 21
258.084
  0
LINE
  8
0
 10
38.4714
 20
258.084
 11
38.329
 21
258.199
  0
LINE
  8
0
 10
38.329
 20
258.199
 11
38.1995
 21
258.329
  0
LINE
  8
0
 10
38.1995
 20
258.329
 11
38.0842
 21
258.471
  0
LINE
  8
0
 10
38.0842
 20
258.471
 11
37.9845
 21
258.625
  0
LINE
  8
0
 10
37.9845
 20
258.625
 11
37.9013
 21
258.788
  0
LINE
  8
0
 10
37.9013
 20
258.788
 11
37.8356
 21
258.959
  0
LINE
  8
0
 10
37.8356
 20
258.959
 11
37.7882
 21
259.136
  0
LINE
  8
0
 10
37.7882
 20
259.136
 11
37.7596
 21
259.317
  0
LINE
  8
0
 10
37.7596
 20
259.317
 11
37.75
 21
259.5
  0
LINE
  8
0
 10
37.75
 20
259.5
 11
37.7596
 21
259.683
  0
LINE
  8
0
 10
37.7596
 20
259.683
 11
37.7882
 21
259.864
  0
LINE
  8
0
 10
37.7882
 20
259.864
 11
37.8356
 21
260.041
  0
LINE
  8
0
 10
37.8356
 20
260.041
 11
37.9013
 21
260.212
  0
LINE
  8
0
 10
37.9013
 20
260.212
 11
37.9845
 21
260.375
  0
LINE
  8
0
 10
37.9845
 20
260.375
 11
38.0842
 21
260.529
  0
LINE
  8
0
 10
38.0842
 20
260.529
 11
38.1995
 21
260.671
  0
LINE
  8
0
 10
38.1995
 20
260.671
 11
38.329
 21
260.801
  0
LINE
  8
0
 10
38.329
 20
260.801
 11
38.4714
 21
260.916
  0
LINE
  8
0
 10
38.4714
 20
260.916
 11
38.625
 21
261.016
  0
LINE
  8
0
 10
38.625
 20
261.016
 11
38.7882
 21
261.099
  0
LINE
  8
0
 10
38.7882
 20
261.099
 11
38.9592
 21
261.164
  0
LINE
  8
0
 10
38.9592
 20
261.164
 11
39.1362
 21
261.212
  0
LINE
  8
0
 10
39.1362
 20
261.212
 11
39.3171
 21
261.24
  0
LINE
  8
0
 10
39.3171
 20
261.24
 11
39.5
 21
261.25
  0
LINE
  8
0
 10
39.5
 20
261.25
 11
39.6829
 21
261.24
  0
LINE
  8
0
 10
39.6829
 20
261.24
 11
39.8638
 21
261.212
  0
LINE
  8
0
 10
39.8638
 20
261.212
 11
40.0408
 21
261.164
  0
LINE
  8
0
 10
40.0408
 20
261.164
 11
40.2118
 21
261.099
  0
LINE
  8
0
 10
40.2118
 20
261.099
 11
40.375
 21
261.016
  0
LINE
  8
0
 10
40.375
 20
261.016
 11
40.5286
 21
260.916
  0
LINE
  8
0
 10
40.5286
 20
260.916
 11
40.671
 21
260.801
  0
LINE
  8
0
 10
40.671
 20
260.801
 11
40.8005
 21
260.671
  0
LINE
  8
0
 10
40.8005
 20
260.671
 11
40.9158
 21
260.529
  0
LINE
  8
0
 10
40.9158
 20
260.529
 11
41.0155
 21
260.375
  0
LINE
  8
0
 10
41.0155
 20
260.375
 11
41.0987
 21
260.212
  0
LINE
  8
0
 10
41.0987
 20
260.212
 11
41.1643
 21
260.041
  0
LINE
  8
0
 10
41.1643
 20
260.041
 11
41.2117
 21
259.864
  0
LINE
  8
0
 10
41.2117
 20
259.864
 11
41.2404
 21
259.683
  0
LINE
  8
0
 10
41.2404
 20
259.683
 11
41.25
 21
259.5
  0
LINE
  8
0
 10
41.25
 20
259.5
 11
41.2404
 21
259.317
  0
LINE
  8
0
 10
41.2404
 20
259.317
 11
41.2117
 21
259.136
  0
LINE
  8
0
 10
41.2117
 20
259.136
 11
41.1643
 21
258.959
  0
LINE
  8
0
 10
41.1643
 20
258.959
 11
41.0987
 21
258.788
  0
LINE
  8
0
 10
41.0987
 20
258.788
 11
41.0155
 21
258.625
  0
LINE
  8
0
 10
41.0155
 20
258.625
 11
40.9158
 21
258.471
  0
LINE
  8
0
 10
40.9158
 20
258.471
 11
40.8005
 21
258.329
  0
LINE
  8
0
 10
40.8005
 20
258.329
 11
40.671
 21
258.199
  0
LINE
  8
0
 10
40.671
 20
258.199
 11
40.5286
 21
258.084
  0
LINE
  8
0
 10
40.5286
 20
258.084
 11
40.375
 21
257.984
  0
LINE
  8
0
 10
40.375
 20
257.984
 11
40.2118
 21
257.901
  0
LINE
  8
0
 10
40.2118
 20
257.901
 11
40.0408
 21
257.836
  0
LINE
  8
0
 10
40.0408
 20
257.836
 11
39.8638
 21
257.788
  0
LINE
  8
0
 10
39.8638
 20
257.788
 11
39.6829
 21
257.76
  0
LINE
  8
0
 10
39.6829
 20
257.76
 11
39.5
 21
257.75
  0
LINE
  8
0
 10
39.5
 20
257.75
 11
39.3171
 21
257.76
  0
LINE
  8
0
 10
-70.5
 20
257.75
 11
-70.6829
 21
257.76
  0
LINE
  8
0
 10
-70.6829
 20
257.76
 11
-70.8638
 21
257.788
  0
LINE
  8
0
 10
-70.8638
 20
257.788
 11
-71.0408
 21
257.836
  0
LINE
  8
0
 10
-71.0408
 20
257.836
 11
-71.2118
 21
257.901
  0
LINE
  8
0
 10
-71.2118
 20
257.901
 11
-71.375
 21
257.984
  0
LINE
  8
0
 10
-71.375
 20
257.984
 11
-71.5286
 21
258.084
  0
LINE
  8
0
 10
-71.5286
 20
258.084
 11
-71.671
 21
258.199
  0
LINE
  8
0
 10
-71.671
 20
258.199
 11
-71.8005
 21
258.329
  0
LINE
  8
0
 10
-71.8005
 20
258.329
 11
-71.9158
 21
258.471
  0
LINE
  8
0
 10
-71.9158
 20
258.471
 11
-72.0155
 21
258.625
  0
LINE
  8
0
 10
-72.0155
 20
258.625
 11
-72.0987
 21
258.788
  0
LINE
  8
0
 10
-72.0987
 20
258.788
 11
-72.1644
 21
258.959
  0
LINE
  8
0
 10
-72.1644
 20
258.959
 11
-72.2118
 21
259.136
  0
LINE
  8
0
 10
-72.2118
 20
259.136
 11
-72.2404
 21
259.317
  0
LINE
  8
0
 10
-72.2404
 20
259.317
 11
-72.25
 21
259.5
  0
LINE
  8
0
 10
-72.25
 20
259.5
 11
-72.2404
 21
259.683
  0
LINE
  8
0
 10
-72.2404
 20
259.683
 11
-72.2118
 21
259.864
  0
LINE
  8
0
 10
-72.2118
 20
259.864
 11
-72.1644
 21
260.041
  0
LINE
  8
0
 10
-72.1644
 20
260.041
 11
-72.0987
 21
260.212
  0
LINE
  8
0
 10
-72.0987
 20
260.212
 11
-72.0155
 21
260.375
  0
LINE
  8
0
 10
-72.0155
 20
260.375
 11
-71.9158
 21
260.529
  0
LINE
  8
0
 10
-71.9158
 20
260.529
 11
-71.8005
 21
260.671
  0
LINE
  8
0
 10
-71.8005
 20
260.671
 11
-71.671
 21
260.801
  0
LINE
  8
0
 10
-71.671
 20
260.801
 11
-71.5286
 21
260.916
  0
LINE
  8
0
 10
-71.5286
 20
260.916
 11
-71.375
 21
261.016
  0
LINE
  8
0
 10
-71.375
 20
261.016
 11
-71.2118
 21
261.099
  0
LINE
  8
0
 10
-71.2118
 20
261.099
 11
-71.0408
 21
261.164
  0
LINE
  8
0
 10
-71.0408
 20
261.164
 11
-70.8638
 21
261.212
  0
LINE
  8
0
 10
-70.8638
 20
261.212
 11
-70.6829
 21
261.24
  0
LINE
  8
0
 10
-70.6829
 20
261.24
 11
-70.5
 21
261.25
  0
LINE
  8
0
 10
-70.5
 20
261.25
 11
-70.3171
 21
261.24
  0
LINE
  8
0
 10
-70.3171
 20
261.24
 11
-70.1362
 21
261.212
  0
LINE
  8
0
 10
-70.1362
 20
261.212
 11
-69.9592
 21
261.164
  0
LINE
  8
0
 10
-69.9592
 20
261.164
 11
-69.7882
 21
261.099
  0
LINE
  8
0
 10
-69.7882
 20
261.099
 11
-69.625
 21
261.016
  0
LINE
  8
0
 10
-69.625
 20
261.016
 11
-69.4714
 21
260.916
  0
LINE
  8
0
 10
-69.4714
 20
260.916
 11
-69.329
 21
260.801
  0
LINE
  8
0
 10
-69.329
 20
260.801
 11
-69.1995
 21
260.671
  0
LINE
  8
0
 10
-69.1995
 20
260.671
 11
-69.0842
 21
260.529
  0
LINE
  8
0
 10
-69.0842
 20
260.529
 11
-68.9845
 21
260.375
  0
LINE
  8
0
 10
-68.9845
 20
260.375
 11
-68.9013
 21
260.212
  0
LINE
  8
0
 10
-68.9013
 20
260.212
 11
-68.8356
 21
260.041
  0
LINE
  8
0
 10
-68.8356
 20
260.041
 11
-68.7882
 21
259.864
  0
LINE
  8
0
 10
-68.7882
 20
259.864
 11
-68.7596
 21
259.683
  0
LINE
  8
0
 10
-68.7596
 20
259.683
 11
-68.75
 21
259.5
  0
LINE
  8
0
 10
-68.75
 20
259.5
 11
-68.7596
 21
259.317
  0
LINE
  8
0
 10
-68.7596
 20
259.317
 11
-68.7882
 21
259.136
  0
LINE
  8
0
 10
-68.7882
 20
259.136
 11
-68.8356
 21
258.959
  0
LINE
  8
0
 10
-68.8356
 20
258.959
 11
-68.9013
 21
258.788
  0
LINE
  8
0
 10
-68.9013
 20
258.788
 11
-68.9845
 21
258.625
  0
LINE
  8
0
 10
-68.9845
 20
258.625
 11
-69.0842
 21
258.471
  0
LINE
  8
0
 10
-69.0842
 20
258.471
 11
-69.1995
 21
258.329
  0
LINE
  8
0
 10
-69.1995
 20
258.329
 11
-69.329
 21
258.199
  0
LINE
  8
0
 10
-69.329
 20
258.199
 11
-69.4714
 21
258.084
  0
LINE
  8
0
 10
-69.4714
 20
258.084
 11
-69.625
 21
257.984
  0
LINE
  8
0
 10
-69.625
 20
257.984
 11
-69.7882
 21
257.901
  0
LINE
  8
0
 10
-69.7882
 20
257.901
 11
-69.9592
 21
257.836
  0
LINE
  8
0
 10
-69.9592
 20
257.836
 11
-70.1362
 21
257.788
  0
LINE
  8
0
 10
-70.1362
 20
257.788
 11
-70.3171
 21
257.76
  0
LINE
  8
0
 10
-70.3171
 20
257.76
 11
-70.5
 21
257.75
  0
LINE
  8
0
 10
-55.5226
 20
225.027
 11
-56.0396
 21
225.109
  0
LINE
  8
0
 10
-56.0396
 20
225.109
 11
-56.5451
 21
225.245
  0
LINE
  8
0
 10
-56.5451
 20
225.245
 11
-57.0337
 21
225.432
  0
LINE
  8
0
 10
-57.0337
 20
225.432
 11
-57.5
 21
225.67
  0
LINE
  8
0
 10
-57.5
 20
225.67
 11
-57.9389
 21
225.955
  0
LINE
  8
0
 10
-57.9389
 20
225.955
 11
-58.3456
 21
226.284
  0
LINE
  8
0
 10
-58.3456
 20
226.284
 11
-58.7157
 21
226.654
  0
LINE
  8
0
 10
-58.7157
 20
226.654
 11
-59.0451
 21
227.061
  0
LINE
  8
0
 10
-59.0451
 20
227.061
 11
-59.3301
 21
227.5
  0
LINE
  8
0
 10
-59.3301
 20
227.5
 11
-59.5677
 21
227.966
  0
LINE
  8
0
 10
-59.5677
 20
227.966
 11
-59.7553
 21
228.455
  0
LINE
  8
0
 10
-59.7553
 20
228.455
 11
-59.8907
 21
228.96
  0
LINE
  8
0
 10
-59.8907
 20
228.96
 11
-59.9726
 21
229.477
  0
LINE
  8
0
 10
-59.9726
 20
229.477
 11
-60
 21
230
  0
LINE
  8
0
 10
-60
 20
230
 11
-59.9726
 21
230.523
  0
LINE
  8
0
 10
-59.9726
 20
230.523
 11
-59.8907
 21
231.04
  0
LINE
  8
0
 10
-59.8907
 20
231.04
 11
-59.7553
 21
231.545
  0
LINE
  8
0
 10
-59.7553
 20
231.545
 11
-59.5677
 21
232.034
  0
LINE
  8
0
 10
-59.5677
 20
232.034
 11
-59.3301
 21
232.5
  0
LINE
  8
0
 10
-59.3301
 20
232.5
 11
-59.0451
 21
232.939
  0
LINE
  8
0
 10
-59.0451
 20
232.939
 11
-58.7157
 21
233.346
  0
LINE
  8
0
 10
-58.7157
 20
233.346
 11
-58.3456
 21
233.716
  0
LINE
  8
0
 10
-58.3456
 20
233.716
 11
-57.9389
 21
234.045
  0
LINE
  8
0
 10
-57.9389
 20
234.045
 11
-57.5
 21
234.33
  0
LINE
  8
0
 10
-57.5
 20
234.33
 11
-57.0337
 21
234.568
  0
LINE
  8
0
 10
-57.0337
 20
234.568
 11
-56.5451
 21
234.755
  0
LINE
  8
0
 10
-56.5451
 20
234.755
 11
-56.0396
 21
234.891
  0
LINE
  8
0
 10
-56.0396
 20
234.891
 11
-55.5226
 21
234.973
  0
LINE
  8
0
 10
-55.5226
 20
234.973
 11
-55
 21
235
  0
LINE
  8
0
 10
-55
 20
235
 11
-54.4774
 21
234.973
  0
LINE
  8
0
 10
-54.4774
 20
234.973
 11
-53.9604
 21
234.891
  0
LINE
  8
0
 10
-53.9604
 20
234.891
 11
-53.4549
 21
234.755
  0
LINE
  8
0
 10
-53.4549
 20
234.755
 11
-52.9663
 21
234.568
  0
LINE
  8
0
 10
-52.9663
 20
234.568
 11
-52.5
 21
234.33
  0
LINE
  8
0
 10
-52.5
 20
234.33
 11
-52.0611
 21
234.045
  0
LINE
  8
0
 10
-52.0611
 20
234.045
 11
-51.6543
 21
233.716
  0
LINE
  8
0
 10
-51.6543
 20
233.716
 11
-51.2843
 21
233.346
  0
LINE
  8
0
 10
-51.2843
 20
233.346
 11
-50.9549
 21
232.939
  0
LINE
  8
0
 10
-50.9549
 20
232.939
 11
-50.6699
 21
232.5
  0
LINE
  8
0
 10
-50.6699
 20
232.5
 11
-50.4323
 21
232.034
  0
LINE
  8
0
 10
-50.4323
 20
232.034
 11
-50.2447
 21
231.545
  0
LINE
  8
0
 10
-50.2447
 20
231.545
 11
-50.1093
 21
231.04
  0
LINE
  8
0
 10
-50.1093
 20
231.04
 11
-50.0274
 21
230.523
  0
LINE
  8
0
 10
-50.0274
 20
230.523
 11
-50
 21
230
  0
LINE
  8
0
 10
-50
 20
230
 11
-50.0274
 21
229.477
  0
LINE
  8
0
 10
-50.0274
 20
229.477
 11
-50.1093
 21
228.96
  0
LINE
  8
0
 10
-50.1093
 20
228.96
 11
-50.2447
 21
228.455
  0
LINE
  8
0
 10
-50.2447
 20
228.455
 11
-50.4323
 21
227.966
  0
LINE
  8
0
 10
-50.4323
 20
227.966
 11
-50.6699
 21
227.5
  0
LINE
  8
0
 10
-50.6699
 20
227.5
 11
-50.9549
 21
227.061
  0
LINE
  8
0
 10
-50.9549
 20
227.061
 11
-51.2843
 21
226.654
  0
LINE
  8
0
 10
-51.2843
 20
226.654
 11
-51.6543
 21
226.284
  0
LINE
  8
0
 10
-51.6543
 20
226.284
 11
-52.0611
 21
225.955
  0
LINE
  8
0
 10
-52.0611
 20
225.955
 11
-52.5
 21
225.67
  0
LINE
  8
0
 10
-52.5
 20
225.67
 11
-52.9663
 21
225.432
  0
LINE
  8
0
 10
-52.9663
 20
225.432
 11
-53.4549
 21
225.245
  0
LINE
  8
0
 10
-53.4549
 20
225.245
 11
-53.9604
 21
225.109
  0
LINE
  8
0
 10
-53.9604
 20
225.109
 11
-54.4774
 21
225.027
  0
LINE
  8
0
 10
-54.4774
 20
225.027
 11
-55
 21
225
  0
LINE
  8
0
 10
-55
 20
225
 11
-55.5226
 21
225.027
  0
LINE
  8
0
 10
54.4774
 20
225.027
 11
53.9604
 21
225.109
  0
LINE
  8
0
 10
53.9604
 20
225.109
 11
53.4549
 21
225.245
  0
LINE
  8
0
 10
53.4549
 20
225.245
 11
52.9663
 21
225.432
  0
LINE
  8
0
 10
52.9663
 20
225.432
 11
52.5
 21
225.67
  0
LINE
  8
0
 10
52.5
 20
225.67
 11
52.0611
 21
225.955
  0
LINE
  8
0
 10
52.0611
 20
225.955
 11
51.6543
 21
226.284
  0
LINE
  8
0
 10
51.6543
 20
226.284
 11
51.2843
 21
226.654
  0
LINE
  8
0
 10
51.2843
 20
226.654
 11
50.9549
 21
227.061
  0
LINE
  8
0
 10
50.9549
 20
227.061
 11
50.6699
 21
227.5
  0
LINE
  8
0
 10
50.6699
 20
227.5
 11
50.4323
 21
227.966
  0
LINE
  8
0
 10
50.4323
 20
227.966
 11
50.2447
 21
228.455
  0
LINE
  8
0
 10
50.2447
 20
228.455
 11
50.1093
 21
228.96
  0
LINE
  8
0
 10
50.1093
 20
228.96
 11
50.0274
 21
229.477
  0
LINE
  8
0
 10
50.0274
 20
229.477
 11
50
 21
230
  0
LINE
  8
0
 10
50
 20
230
 11
50.0274
 21
230.523
  0
LINE
  8
0
 10
50.0274
 20
230.523
 11
50.1093
 21
231.04
  0
LINE
  8
0
 10
50.1093
 20
231.04
 11
50.2447
 21
231.545
  0
LINE
  8
0
 10
50.2447
 20
231.545
 11
50.4323
 21
232.034
  0
LINE
  8
0
 10
50.4323
 20
232.034
 11
50.6699
 21
232.5
  0
LINE
  8
0
 10
50.6699
 20
232.5
 11
50.9549
 21
232.939
  0
LINE
  8
0
 10
50.9549
 20
232.939
 11
51.2843
 21
233.346
  0
LINE
  8
0
 10
51.2843
 20
233.346
 11
51.6543
 21
233.716
  0
LINE
  8
0
 10
51.6543
 20
233.716
 11
52.0611
 21
234.045
  0
LINE
  8
0
 10
52.0611
 20
234.045
 11
52.5
 21
234.33
  0
LINE
  8
0
 10
52.5
 20
234.33
 11
52.9663
 21
234.568
  0
LINE
  8
0
 10
52.9663
 20
234.568
 11
53.4549
 21
234.755
  0
LINE
  8
0
 10
53.4549
 20
234.755
 11
53.9604
 21
234.891
  0
LINE
  8
0
 10
53.9604
 20
234.891
 11
54.4774
 21
234.973
  0
LINE
  8
0
 10
54.4774
 20
234.973
 11
55
 21
235
  0
LINE
  8
0
 10
55
 20
235
 11
55.5226
 21
234.973
  0
LINE
  8
0
 10
55.5226
 20
234.973
 11
56.0396
 21
234.891
  0
LINE
  8
0
 10
56.0396
 20
234.891
 11
56.5451
 21
234.755
  0
LINE
  8
0
 10
56.5451
 20
234.755
 11
57.0337
 21
234.568
  0
LINE
  8
0
 10
57.0337
 20
234.568
 11
57.5
 21
234.33
  0
LINE
  8
0
 10
57.5
 20
234.33
 11
57.9389
 21
234.045
  0
LINE
  8
0
 10
57.9389
 20
234.045
 11
58.3456
 21
233.716
  0
LINE
  8
0
 10
58.3456
 20
233.716
 11
58.7157
 21
233.346
  0
LINE
  8
0
 10
58.7157
 20
233.346
 11
59.0451
 21
232.939
  0
LINE
  8
0
 10
59.0451
 20
232.939
 11
59.3301
 21
232.5
  0
LINE
  8
0
 10
59.3301
 20
232.5
 11
59.5677
 21
232.034
  0
LINE
  8
0
 10
59.5677
 20
232.034
 11
59.7553
 21
231.545
  0
LINE
  8
0
 10
59.7553
 20
231.545
 11
59.8907
 21
231.04
  0
LINE
  8
0
 10
59.8907
 20
231.04
 11
59.9726
 21
230.523
  0
LINE
  8
0
 10
59.9726
 20
230.523
 11
60
 21
230
  0
LINE
  8
0
 10
60
 20
230
 11
59.9726
 21
229.477
  0
LINE
  8
0
 10
59.9726
 20
229.477
 11
59.8907
 21
228.96
  0
LINE
  8
0
 10
59.8907
 20
228.96
 11
59.7553
 21
228.455
  0
LINE
  8
0
 10
59.7553
 20
228.455
 11
59.5677
 21
227.966
  0
LINE
  8
0
 10
59.5677
 20
227.966
 11
59.3301
 21
227.5
  0
LINE
  8
0
 10
59.3301
 20
227.5
 11
59.0451
 21
227.061
  0
LINE
  8
0
 10
59.0451
 20
227.061
 11
58.7157
 21
226.654
  0
LINE
  8
0
 10
58.7157
 20
226.654
 11
58.3456
 21
226.284
  0
LINE
  8
0
 10
58.3456
 20
226.284
 11
57.9389
 21
225.955
  0
LINE
  8
0
 10
57.9389
 20
225.955
 11
57.5
 21
225.67
  0
LINE
  8
0
 10
57.5
 20
225.67
 11
57.0337
 21
225.432
  0
LINE
  8
0
 10
57.0337
 20
225.432
 11
56.5451
 21
225.245
  0
LINE
  8
0
 10
56.5451
 20
225.245
 11
56.0396
 21
225.109
  0
LINE
  8
0
 10
56.0396
 20
225.109
 11
55.5226
 21
225.027
  0
LINE
  8
0
 10
55.5226
 20
225.027
 11
55
 21
225
  0
LINE
  8
0
 10
55
 20
225
 11
54.4774
 21
225.027
  0
LINE
  8
0
 10
-55
 20
46
 11
-55
 21
64
  0
LINE
  8
0
 10
-55
 20
64
 11
55
 21
64
  0
LINE
  8
0
 10
55
 20
64
 11
55
 21
46
  0
LINE
  8
0
 10
55
 20
46
 11
-55
 21
46
  0
LINE
  8
0
 10
-59.1568
 20
53.5082
 11
-59.3119
 21
53.5328
  0
LINE
  8
0
 10
-59.3119
 20
53.5328
 11
-59.4635
 21
53.5734
  0
LINE
  8
0
 10
-59.4635
 20
53.5734
 11
-59.6101
 21
53.6297
  0
LINE
  8
0
 10
-59.6101
 20
53.6297
 11
-59.75
 21
53.701
  0
LINE
  8
0
 10
-59.75
 20
53.701
 11
-59.8817
 21
53.7865
  0
LINE
  8
0
 10
-59.8817
 20
53.7865
 11
-60.0037
 21
53.8853
  0
LINE
  8
0
 10
-60.0037
 20
53.8853
 11
-60.1147
 21
53.9963
  0
LINE
  8
0
 10
-60.1147
 20
53.9963
 11
-60.2135
 21
54.1183
  0
LINE
  8
0
 10
-60.2135
 20
54.1183
 11
-60.299
 21
54.25
  0
LINE
  8
0
 10
-60.299
 20
54.25
 11
-60.3703
 21
54.3899
  0
LINE
  8
0
 10
-60.3703
 20
54.3899
 11
-60.4266
 21
54.5365
  0
LINE
  8
0
 10
-60.4266
 20
54.5365
 11
-60.4672
 21
54.6881
  0
LINE
  8
0
 10
-60.4672
 20
54.6881
 11
-60.4918
 21
54.8432
  0
LINE
  8
0
 10
-60.4918
 20
54.8432
 11
-60.5
 21
55
  0
LINE
  8
0
 10
-60.5
 20
55
 11
-60.4918
 21
55.1568
  0
LINE
  8
0
 10
-60.4918
 20
55.1568
 11
-60.4672
 21
55.3119
  0
LINE
  8
0
 10
-60.4672
 20
55.3119
 11
-60.4266
 21
55.4635
  0
LINE
  8
0
 10
-60.4266
 20
55.4635
 11
-60.3703
 21
55.6101
  0
LINE
  8
0
 10
-60.3703
 20
55.6101
 11
-60.299
 21
55.75
  0
LINE
  8
0
 10
-60.299
 20
55.75
 11
-60.2135
 21
55.8817
  0
LINE
  8
0
 10
-60.2135
 20
55.8817
 11
-60.1147
 21
56.0037
  0
LINE
  8
0
 10
-60.1147
 20
56.0037
 11
-60.0037
 21
56.1147
  0
LINE
  8
0
 10
-60.0037
 20
56.1147
 11
-59.8817
 21
56.2135
  0
LINE
  8
0
 10
-59.8817
 20
56.2135
 11
-59.75
 21
56.299
  0
LINE
  8
0
 10
-59.75
 20
56.299
 11
-59.6101
 21
56.3703
  0
LINE
  8
0
 10
-59.6101
 20
56.3703
 11
-59.4635
 21
56.4266
  0
LINE
  8
0
 10
-59.4635
 20
56.4266
 11
-59.3119
 21
56.4672
  0
LINE
  8
0
 10
-59.3119
 20
56.4672
 11
-59.1568
 21
56.4918
  0
LINE
  8
0
 10
-59.1568
 20
56.4918
 11
-59
 21
56.5
  0
LINE
  8
0
 10
-59
 20
56.5
 11
-58.8432
 21
56.4918
  0
LINE
  8
0
 10
-58.8432
 20
56.4918
 11
-58.6881
 21
56.4672
  0
LINE
  8
0
 10
-58.6881
 20
56.4672
 11
-58.5365
 21
56.4266
  0
LINE
  8
0
 10
-58.5365
 20
56.4266
 11
-58.3899
 21
56.3703
  0
LINE
  8
0
 10
-58.3899
 20
56.3703
 11
-58.25
 21
56.299
  0
LINE
  8
0
 10
-58.25
 20
56.299
 11
-58.1183
 21
56.2135
  0
LINE
  8
0
 10
-58.1183
 20
56.2135
 11
-57.9963
 21
56.1147
  0
LINE
  8
0
 10
-57.9963
 20
56.1147
 11
-57.8853
 21
56.0037
  0
LINE
  8
0
 10
-57.8853
 20
56.0037
 11
-57.7865
 21
55.8817
  0
LINE
  8
0
 10
-57.7865
 20
55.8817
 11
-57.701
 21
55.75
  0
LINE
  8
0
 10
-57.701
 20
55.75
 11
-57.6297
 21
55.6101
  0
LINE
  8
0
 10
-57.6297
 20
55.6101
 11
-57.5734
 21
55.4635
  0
LINE
  8
0
 10
-57.5734
 20
55.4635
 11
-57.5328
 21
55.3119
  0
LINE
  8
0
 10
-57.5328
 20
55.3119
 11
-57.5082
 21
55.1568
  0
LINE
  8
0
 10
-57.5082
 20
55.1568
 11
-57.5
 21
55
  0
LINE
  8
0
 10
-57.5
 20
55
 11
-57.5082
 21
54.8432
  0
LINE
  8
0
 10
-57.5082
 20
54.8432
 11
-57.5328
 21
54.6881
  0
LINE
  8
0
 10
-57.5328
 20
54.6881
 11
-57.5734
 21
54.5365
  0
LINE
  8
0
 10
-57.5734
 20
54.5365
 11
-57.6297
 21
54.3899
  0
LINE
  8
0
 10
-57.6297
 20
54.3899
 11
-57.701
 21
54.25
  0
LINE
  8
0
 10
-57.701
 20
54.25
 11
-57.7865
 21
54.1183
  0
LINE
  8
0
 10
-57.7865
 20
54.1183
 11
-57.8853
 21
53.9963
  0
LINE
  8
0
 10
-57.8853
 20
53.9963
 11
-57.9963
 21
53.8853
  0
LINE
  8
0
 10
-57.9963
 20
53.8853
 11
-58.1183
 21
53.7865
  0
LINE
  8
0
 10
-58.1183
 20
53.7865
 11
-58.25
 21
53.701
  0
LINE
  8
0
 10
-58.25
 20
53.701
 11
-58.3899
 21
53.6297
  0
LINE
  8
0
 10
-58.3899
 20
53.6297
 11
-58.5365
 21
53.5734
  0
LINE
  8
0
 10
-58.5365
 20
53.5734
 11
-58.6881
 21
53.5328
  0
LINE
  8
0
 10
-58.6881
 20
53.5328
 11
-58.8432
 21
53.5082
  0
LINE
  8
0
 10
-58.8432
 20
53.5082
 11
-59
 21
53.5
  0
LINE
  8
0
 10
-59
 20
53.5
 11
-59.1568
 21
53.5082
  0
LINE
  8
0
 10
58.8432
 20
53.5082
 11
58.6881
 21
53.5328
  0
LINE
  8
0
 10
58.6881
 20
53.5328
 11
58.5365
 21
53.5734
  0
LINE
  8
0
 10
58.5365
 20
53.5734
 11
58.3899
 21
53.6297
  0
LINE
  8
0
 10
58.3899
 20
53.6297
 11
58.25
 21
53.701
  0
LINE
  8
0
 10
58.25
 20
53.701
 11
58.1183
 21
53.7865
  0
LINE
  8
0
 10
58.1183
 20
53.7865
 11
57.9963
 21
53.8853
  0
LINE
  8
0
 10
57.9963
 20
53.8853
 11
57.8853
 21
53.9963
  0
LINE
  8
0
 10
57.8853
 20
53.9963
 11
57.7865
 21
54.1183
  0
LINE
  8
0
 10
57.7865
 20
54.1183
 11
57.701
 21
54.25
  0
LINE
  8
0
 10
57.701
 20
54.25
 11
57.6297
 21
54.3899
  0
LINE
  8
0
 10
57.6297
 20
54.3899
 11
57.5734
 21
54.5365
  0
LINE
  8
0
 10
57.5734
 20
54.5365
 11
57.5328
 21
54.6881
  0
LINE
  8
0
 10
57.5328
 20
54.6881
 11
57.5082
 21
54.8432
  0
LINE
  8
0
 10
57.5082
 20
54.8432
 11
57.5
 21
55
  0
LINE
  8
0
 10
57.5
 20
55
 11
57.5082
 21
55.1568
  0
LINE
  8
0
 10
57.5082
 20
55.1568
 11
57.5328
 21
55.3119
  0
LINE
  8
0
 10
57.5328
 20
55.3119
 11
57.5734
 21
55.4635
  0
LINE
  8
0
 10
57.5734
 20
55.4635
 11
57.6297
 21
55.6101
  0
LINE
  8
0
 10
57.6297
 20
55.6101
 11
57.701
 21
55.75
  0
LINE
  8
0
 10
57.701
 20
55.75
 11
57.7865
 21
55.8817
  0
LINE
  8
0
 10
57.7865
 20
55.8817
 11
57.8853
 21
56.0037
  0
LINE
  8
0
 10
57.8853
 20
56.0037
 11
57.9963
 21
56.1147
  0
LINE
  8
0
 10
57.9963
 20
56.1147
 11
58.1183
 21
56.2135
  0
LINE
  8
0
 10
58.1183
 20
56.2135
 11
58.25
 21
56.299
  0
LINE
  8
0
 10
58.25
 20
56.299
 11
58.3899
 21
56.3703
  0
LINE
  8
0
 10
58.3899
 20
56.3703
 11
58.5365
 21
56.4266
  0
LINE
  8
0
 10
58.5365
 20
56.4266
 11
58.6881
 21
56.4672
  0
LINE
  8
0
 10
58.6881
 20
56.4672
 11
58.8432
 21
56.4918
  0
LINE
  8
0
 10
58.8432
 20
56.4918
 11
59
 21
56.5
  0
LINE
  8
0
 10
59
 20
56.5
 11
59.1568
 21
56.4918
  0
LINE
  8
0
 10
59.1568
 20
56.4918
 11
59.3119
 21
56.4672
  0
LINE
  8
0
 10
59.3119
 20
56.4672
 11
59.4635
 21
56.4266
  0
LINE
  8
0
 10
59.4635
 20
56.4266
 11
59.6101
 21
56.3703
  0
LINE
  8
0
 10
59.6101
 20
56.3703
 11
59.75
 21
56.299
  0
LINE
  8
0
 10
59.75
 20
56.299
 11
59.8817
 21
56.2135
  0
LINE
  8
0
 10
59.8817
 20
56.2135
 11
60.0037
 21
56.1147
  0
LINE
  8
0
 10
60.0037
 20
56.1147
 11
60.1147
 21
56.0037
  0
LINE
  8
0
 10
60.1147
 20
56.0037
 11
60.2135
 21
55.8817
  0
LINE
  8
0
 10
60.2135
 20
55.8817
 11
60.299
 21
55.75
  0
LINE
  8
0
 10
60.299
 20
55.75
 11
60.3703
 21
55.6101
  0
LINE
  8
0
 10
60.3703
 20
55.6101
 11
60.4266
 21
55.4635
  0
LINE
  8
0
 10
60.4266
 20
55.4635
 11
60.4672
 21
55.3119
  0
LINE
  8
0
 10
60.4672
 20
55.3119
 11
60.4918
 21
55.1568
  0
LINE
  8
0
 10
60.4918
 20
55.1568
 11
60.5
 21
55
  0
LINE
  8
0
 10
60.5
 20
55
 11
60.4918
 21
54.8432
  0
LINE
  8
0
 10
60.4918
 20
54.8432
 11
60.4672
 21
54.6881
  0
LINE
  8
0
 10
60.4672
 20
54.6881
 11
60.4266
 21
54.5365
  0
LINE
  8
0
 10
60.4266
 20
54.5365
 11
60.3703
 21
54.3899
  0
LINE
  8
0
 10
60.3703
 20
54.3899
 11
60.299
 21
54.25
  0
LINE
  8
0
 10
60.299
 20
54.25
 11
60.2135
 21
54.1183
  0
LINE
  8
0
 10
60.2135
 20
54.1183
 11
60.1147
 21
53.9963
  0
LINE
  8
0
 10
60.1147
 20
53.9963
 11
60.0037
 21
53.8853
  0
LINE
  8
0
 10
60.0037
 20
53.8853
 11
59.8817
 21
53.7865
  0
LINE
  8
0
 10
59.8817
 20
53.7865
 11
59.75
 21
53.701
  0
LINE
  8
0
 10
59.75
 20
53.701
 11
59.6101
 21
53.6297
  0
LINE
  8
0
 10
59.6101
 20
53.6297
 11
59.4635
 21
53.5734
  0
LINE
  8
0
 10
59.4635
 20
53.5734
 11
59.3119
 21
53.5328
  0
LINE
  8
0
 10
59.3119
 20
53.5328
 11
59.1568
 21
53.5082
  0
LINE
  8
0
 10
59.1568
 20
53.5082
 11
59
 21
53.5
  0
LINE
  8
0
 10
59
 20
53.5
 11
58.8432
 21
53.5082
  0
LINE
  8
0
 10
-20.1568
 20
-188.492
 11
-20.3119
 21
-188.467
  0
LINE
  8
0
 10
-20.3119
 20
-188.467
 11
-20.4635
 21
-188.427
  0
LINE
  8
0
 10
-20.4635
 20
-188.427
 11
-20.6101
 21
-188.37
  0
LINE
  8
0
 10
-20.6101
 20
-188.37
 11
-20.75
 21
-188.299
  0
LINE
  8
0
 10
-20.75
 20
-188.299
 11
-20.8817
 21
-188.214
  0
LINE
  8
0
 10
-20.8817
 20
-188.214
 11
-21.0037
 21
-188.115
  0
LINE
  8
0
 10
-21.0037
 20
-188.115
 11
-21.1147
 21
-188.004
  0
LINE
  8
0
 10
-21.1147
 20
-188.004
 11
-21.2135
 21
-187.882
  0
LINE
  8
0
 10
-21.2135
 20
-187.882
 11
-21.299
 21
-187.75
  0
LINE
  8
0
 10
-21.299
 20
-187.75
 11
-21.3703
 21
-187.61
  0
LINE
  8
0
 10
-21.3703
 20
-187.61
 11
-21.4266
 21
-187.464
  0
LINE
  8
0
 10
-21.4266
 20
-187.464
 11
-21.4672
 21
-187.312
  0
LINE
  8
0
 10
-21.4672
 20
-187.312
 11
-21.4918
 21
-187.157
  0
LINE
  8
0
 10
-21.4918
 20
-187.157
 11
-21.5
 21
-187
  0
LINE
  8
0
 10
-21.5
 20
-187
 11
-21.4918
 21
-186.843
  0
LINE
  8
0
 10
-21.4918
 20
-186.843
 11
-21.4672
 21
-186.688
  0
LINE
  8
0
 10
-21.4672
 20
-186.688
 11
-21.4266
 21
-186.536
  0
LINE
  8
0
 10
-21.4266
 20
-186.536
 11
-21.3703
 21
-186.39
  0
LINE
  8
0
 10
-21.3703
 20
-186.39
 11
-21.299
 21
-186.25
  0
LINE
  8
0
 10
-21.299
 20
-186.25
 11
-21.2135
 21
-186.118
  0
LINE
  8
0
 10
-21.2135
 20
-186.118
 11
-21.1147
 21
-185.996
  0
LINE
  8
0
 10
-21.1147
 20
-185.996
 11
-21.0037
 21
-185.885
  0
LINE
  8
0
 10
-21.0037
 20
-185.885
 11
-20.8817
 21
-185.786
  0
LINE
  8
0
 10
-20.8817
 20
-185.786
 11
-20.75
 21
-185.701
  0
LINE
  8
0
 10
-20.75
 20
-185.701
 11
-20.6101
 21
-185.63
  0
LINE
  8
0
 10
-20.6101
 20
-185.63
 11
-20.4635
 21
-185.573
  0
LINE
  8
0
 10
-20.4635
 20
-185.573
 11
-20.3119
 21
-185.533
  0
LINE
  8
0
 10
-20.3119
 20
-185.533
 11
-20.1568
 21
-185.508
  0
LINE
  8
0
 10
-20.1568
 20
-185.508
 11
-20
 21
-185.5
  0
LINE
  8
0
 10
-20
 20
-185.5
 11
-19.8432
 21
-185.508
  0
LINE
  8
0
 10
-19.8432
 20
-185.508
 11
-19.6881
 21
-185.533
  0
LINE
  8
0
 10
-19.6881
 20
-185.533
 11
-19.5365
 21
-185.573
  0
LINE
  8
0
 10
-19.5365
 20
-185.573
 11
-19.3899
 21
-185.63
  0
LINE
  8
0
 10
-19.3899
 20
-185.63
 11
-19.25
 21
-185.701
  0
LINE
  8
0
 10
-19.25
 20
-185.701
 11
-19.1183
 21
-185.786
  0
LINE
  8
0
 10
-19.1183
 20
-185.786
 11
-18.9963
 21
-185.885
  0
LINE
  8
0
 10
-18.9963
 20
-185.885
 11
-18.8853
 21
-185.996
  0
LINE
  8
0
 10
-18.8853
 20
-185.996
 11
-18.7865
 21
-186.118
  0
LINE
  8
0
 10
-18.7865
 20
-186.118
 11
-18.701
 21
-186.25
  0
LINE
  8
0
 10
-18.701
 20
-186.25
 11
-18.6297
 21
-186.39
  0
LINE
  8
0
 10
-18.6297
 20
-186.39
 11
-18.5734
 21
-186.536
  0
LINE
  8
0
 10
-18.5734
 20
-186.536
 11
-18.5328
 21
-186.688
  0
LINE
  8
0
 10
-18.5328
 20
-186.688
 11
-18.5082
 21
-186.843
  0
LINE
  8
0
 10
-18.5082
 20
-186.843
 11
-18.5
 21
-187
  0
LINE
  8
0
 10
-18.5
 20
-187
 11
-18.5082
 21
-187.157
  0
LINE
  8
0
 10
-18.5082
 20
-187.157
 11
-18.5328
 21
-187.312
  0
LINE
  8
0
 10
-18.5328
 20
-187.312
 11
-18.5734
 21
-187.464
  0
LINE
  8
0
 10
-18.5734
 20
-187.464
 11
-18.6297
 21
-187.61
  0
LINE
  8
0
 10
-18.6297
 20
-187.61
 11
-18.701
 21
-187.75
  0
LINE
  8
0
 10
-18.701
 20
-187.75
 11
-18.7865
 21
-187.882
  0
LINE
  8
0
 10
-18.7865
 20
-187.882
 11
-18.8853
 21
-188.004
  0
LINE
  8
0
 10
-18.8853
 20
-188.004
 11
-18.9963
 21
-188.115
  0
LINE
  8
0
 10
-18.9963
 20
-188.115
 11
-19.1183
 21
-188.214
  0
LINE
  8
0
 10
-19.1183
 20
-188.214
 11
-19.25
 21
-188.299
  0
LINE
  8
0
 10
-19.25
 20
-188.299
 11
-19.3899
 21
-188.37
  0
LINE
  8
0
 10
-19.3899
 20
-188.37
 11
-19.5365
 21
-188.427
  0
LINE
  8
0
 10
-19.5365
 20
-188.427
 11
-19.6881
 21
-188.467
  0
LINE
  8
0
 10
-19.6881
 20
-188.467
 11
-19.8432
 21
-188.492
  0
LINE
  8
0
 10
-19.8432
 20
-188.492
 11
-20
 21
-188.5
  0
LINE
  8
0
 10
-20
 20
-188.5
 11
-20.1568
 21
-188.492
  0
LINE
  8
0
 10
19.8432
 20
-188.492
 11
19.6881
 21
-188.467
  0
LINE
  8
0
 10
19.6881
 20
-188.467
 11
19.5365
 21
-188.427
  0
LINE
  8
0
 10
19.5365
 20
-188.427
 11
19.3899
 21
-188.37
  0
LINE
  8
0
 10
19.3899
 20
-188.37
 11
19.25
 21
-188.299
  0
LINE
  8
0
 10
19.25
 20
-188.299
 11
19.1183
 21
-188.214
  0
LINE
  8
0
 10
19.1183
 20
-188.214
 11
18.9963
 21
-188.115
  0
LINE
  8
0
 10
18.9963
 20
-188.115
 11
18.8853
 21
-188.004
  0
LINE
  8
0
 10
18.8853
 20
-188.004
 11
18.7865
 21
-187.882
  0
LINE
  8
0
 10
18.7865
 20
-187.882
 11
18.701
 21
-187.75
  0
LINE
  8
0
 10
18.701
 20
-187.75
 11
18.6297
 21
-187.61
  0
LINE
  8
0
 10
18.6297
 20
-187.61
 11
18.5734
 21
-187.464
  0
LINE
  8
0
 10
18.5734
 20
-187.464
 11
18.5328
 21
-187.312
  0
LINE
  8
0
 10
18.5328
 20
-187.312
 11
18.5082
 21
-187.157
  0
LINE
  8
0
 10
18.5082
 20
-187.157
 11
18.5
 21
-187
  0
LINE
  8
0
 10
18.5
 20
-187
 11
18.5082
 21
-186.843
  0
LINE
  8
0
 10
18.5082
 20
-186.843
 11
18.5328
 21
-186.688
  0
LINE
  8
0
 10
18.5328
 20
-186.688
 11
18.5734
 21
-186.536
  0
LINE
  8
0
 10
18.5734
 20
-186.536
 11
18.6297
 21
-186.39
  0
LINE
  8
0
 10
18.6297
 20
-186.39
 11
18.701
 21
-186.25
  0
LINE
  8
0
 10
18.701
 20
-186.25
 11
18.7865
 21
-186.118
  0
LINE
  8
0
 10
18.7865
 20
-186.118
 11
18.8853
 21
-185.996
  0
LINE
  8
0
 10
18.8853
 20
-185.996
 11
18.9963
 21
-185.885
  0
LINE
  8
0
 10
18.9963
 20
-185.885
 11
19.1183
 21
-185.786
  0
LINE
  8
0
 10
19.1183
 20
-185.786
 11
19.25
 21
-185.701
  0
LINE
  8
0
 10
19.25
 20
-185.701
 11
19.3899
 21
-185.63
  0
LINE
  8
0
 10
19.3899
 20
-185.63
 11
19.5365
 21
-185.573
  0
LINE
  8
0
 10
19.5365
 20
-185.573
 11
19.6881
 21
-185.533
  0
LINE
  8
0
 10
19.6881
 20
-185.533
 11
19.8432
 21
-185.508
  0
LINE
  8
0
 10
19.8432
 20
-185.508
 11
20
 21
-185.5
  0
LINE
  8
0
 10
20
 20
-185.5
 11
20.1568
 21
-185.508
  0
LINE
  8
0
 10
20.1568
 20
-185.508
 11
20.3119
 21
-185.533
  0
LINE
  8
0
 10
20.3119
 20
-185.533
 11
20.4635
 21
-185.573
  0
LINE
  8
0
 10
20.4635
 20
-185.573
 11
20.6101
 21
-185.63
  0
LINE
  8
0
 10
20.6101
 20
-185.63
 11
20.75
 21
-185.701
  0
LINE
  8
0
 10
20.75
 20
-185.701
 11
20.8817
 21
-185.786
  0
LINE
  8
0
 10
20.8817
 20
-185.786
 11
21.0037
 21
-185.885
  0
LINE
  8
0
 10
21.0037
 20
-185.885
 11
21.1147
 21
-185.996
  0
LINE
  8
0
 10
21.1147
 20
-185.996
 11
21.2135
 21
-186.118
  0
LINE
  8
0
 10
21.2135
 20
-186.118
 11
21.299
 21
-186.25
  0
LINE
  8
0
 10
21.299
 20
-186.25
 11
21.3703
 21
-186.39
  0
LINE
  8
0
 10
21.3703
 20
-186.39
 11
21.4266
 21
-186.536
  0
LINE
  8
0
 10
21.4266
 20
-186.536
 11
21.4672
 21
-186.688
  0
LINE
  8
0
 10
21.4672
 20
-186.688
 11
21.4918
 21
-186.843
  0
LINE
  8
0
 10
21.4918
 20
-186.843
 11
21.5
 21
-187
  0
LINE
  8
0
 10
21.5
 20
-187
 11
21.4918
 21
-187.157
  0
LINE
  8
0
 10
21.4918
 20
-187.157
 11
21.4672
 21
-187.312
  0
LINE
  8
0
 10
21.4672
 20
-187.312
 11
21.4266
 21
-187.464
  0
LINE
  8
0
 10
21.4266
 20
-187.464
 11
21.3703
 21
-187.61
  0
LINE
  8
0
 10
21.3703
 20
-187.61
 11
21.299
 21
-187.75
  0
LINE
  8
0
 10
21.299
 20
-187.75
 11
21.2135
 21
-187.882
  0
LINE
  8
0
 10
21.2135
 20
-187.882
 11
21.1147
 21
-188.004
  0
LINE
  8
0
 10
21.1147
 20
-188.004
 11
21.0037
 21
-188.115
  0
LINE
  8
0
 10
21.0037
 20
-188.115
 11
20.8817
 21
-188.214
  0
LINE
  8
0
 10
20.8817
 20
-188.214
 11
20.75
 21
-188.299
  0
LINE
  8
0
 10
20.75
 20
-188.299
 11
20.6101
 21
-188.37
  0
LINE
  8
0
 10
20.6101
 20
-188.37
 11
20.4635
 21
-188.427
  0
LINE
  8
0
 10
20.4635
 20
-188.427
 11
20.3119
 21
-188.467
  0
LINE
  8
0
 10
20.3119
 20
-188.467
 11
20.1568
 21
-188.492
  0
LINE
  8
0
 10
20.1568
 20
-188.492
 11
20
 21
-188.5
  0
LINE
  8
0
 10
20
 20
-188.5
 11
19.8432
 21
-188.492
  0
LINE
  8
0
 10
-0.156784
 20
-188.492
 11
-0.311859
 21
-188.467
  0
LINE
  8
0
 10
-0.311859
 20
-188.467
 11
-0.463516
 21
-188.427
  0
LINE
  8
0
 10
-0.463516
 20
-188.427
 11
-0.610092
 21
-188.37
  0
LINE
  8
0
 10
-0.610092
 20
-188.37
 11
-0.75
 21
-188.299
  0
LINE
  8
0
 10
-0.75
 20
-188.299
 11
-0.881668
 21
-188.214
  0
LINE
  8
0
 10
-0.881668
 20
-188.214
 11
-1.00369
 21
-188.115
  0
LINE
  8
0
 10
-1.00369
 20
-188.115
 11
-1.11472
 21
-188.004
  0
LINE
  8
0
 10
-1.11472
 20
-188.004
 11
-1.21352
 21
-187.882
  0
LINE
  8
0
 10
-1.21352
 20
-187.882
 11
-1.29903
 21
-187.75
  0
LINE
  8
0
 10
-1.29903
 20
-187.75
 11
-1.37032
 21
-187.61
  0
LINE
  8
0
 10
-1.37032
 20
-187.61
 11
-1.42657
 21
-187.464
  0
LINE
  8
0
 10
-1.42657
 20
-187.464
 11
-1.46721
 21
-187.312
  0
LINE
  8
0
 10
-1.46721
 20
-187.312
 11
-1.49178
 21
-187.157
  0
LINE
  8
0
 10
-1.49178
 20
-187.157
 11
-1.5
 21
-187
  0
LINE
  8
0
 10
-1.5
 20
-187
 11
-1.49178
 21
-186.843
  0
LINE
  8
0
 10
-1.49178
 20
-186.843
 11
-1.46721
 21
-186.688
  0
LINE
  8
0
 10
-1.46721
 20
-186.688
 11
-1.42657
 21
-186.536
  0
LINE
  8
0
 10
-1.42657
 20
-186.536
 11
-1.37032
 21
-186.39
  0
LINE
  8
0
 10
-1.37032
 20
-186.39
 11
-1.29903
 21
-186.25
  0
LINE
  8
0
 10
-1.29903
 20
-186.25
 11
-1.21352
 21
-186.118
  0
LINE
  8
0
 10
-1.21352
 20
-186.118
 11
-1.11472
 21
-185.996
  0
LINE
  8
0
 10
-1.11472
 20
-185.996
 11
-1.00369
 21
-185.885
  0
LINE
  8
0
 10
-1.00369
 20
-185.885
 11
-0.881668
 21
-185.786
  0
LINE
  8
0
 10
-0.881668
 20
-185.786
 11
-0.75
 21
-185.701
  0
LINE
  8
0
 10
-0.75
 20
-185.701
 11
-0.610092
 21
-185.63
  0
LINE
  8
0
 10
-0.610092
 20
-185.63
 11
-0.463516
 21
-185.573
  0
LINE
  8
0
 10
-0.463516
 20
-185.573
 11
-0.311859
 21
-185.533
  0
LINE
  8
0
 10
-0.311859
 20
-185.533
 11
-0.156784
 21
-185.508
  0
LINE
  8
0
 10
-0.156784
 20
-185.508
 11
0
 21
-185.5
  0
LINE
  8
0
 10
0
 20
-185.5
 11
0.156784
 21
-185.508
  0
LINE
  8
0
 10
0.156784
 20
-185.508
 11
0.311859
 21
-185.533
  0
LINE
  8
0
 10
0.311859
 20
-185.533
 11
0.463516
 21
-185.573
  0
LINE
  8
0
 10
0.463516
 20
-185.573
 11
0.610092
 21
-185.63
  0
LINE
  8
0
 10
0.610092
 20
-185.63
 11
0.75
 21
-185.701
  0
LINE
  8
0
 10
0.75
 20
-185.701
 11
0.881668
 21
-185.786
  0
LINE
  8
0
 10
0.881668
 20
-185.786
 11
1.00369
 21
-185.885
  0
LINE
  8
0
 10
1.00369
 20
-185.885
 11
1.11472
 21
-185.996
  0
LINE
  8
0
 10
1.11472
 20
-185.996
 11
1.21352
 21
-186.118
  0
LINE
  8
0
 10
1.21352
 20
-186.118
 11
1.29903
 21
-186.25
  0
LINE
  8
0
 10
1.29903
 20
-186.25
 11
1.37032
 21
-186.39
  0
LINE
  8
0
 10
1.37032
 20
-186.39
 11
1.42657
 21
-186.536
  0
LINE
  8
0
 10
1.42657
 20
-186.536
 11
1.46721
 21
-186.688
  0
LINE
  8
0
 10
1.46721
 20
-186.688
 11
1.49178
 21
-186.843
  0
LINE
  8
0
 10
1.49178
 20
-186.843
 11
1.5
 21
-187
  0
LINE
  8
0
 10
1.5
 20
-187
 11
1.49178
 21
-187.157
  0
LINE
  8
0
 10
1.49178
 20
-187.157
 11
1.46721
 21
-187.312
  0
LINE
  8
0
 10
1.46721
 20
-187.312
 11
1.42657
 21
-187.464
  0
LINE
  8
0
 10
1.42657
 20
-187.464
 11
1.37032
 21
-187.61
  0
LINE
  8
0
 10
1.37032
 20
-187.61
 11
1.29903
 21
-187.75
  0
LINE
  8
0
 10
1.29903
 20
-187.75
 11
1.21352
 21
-187.882
  0
LINE
  8
0
 10
1.21352
 20
-187.882
 11
1.11472
 21
-188.004
  0
LINE
  8
0
 10
1.11472
 20
-188.004
 11
1.00369
 21
-188.115
  0
LINE
  8
0
 10
1.00369
 20
-188.115
 11
0.881668
 21
-188.214
  0
LINE
  8
0
 10
0.881668
 20
-188.214
 11
0.75
 21
-188.299
  0
LINE
  8
0
 10
0.75
 20
-188.299
 11
0.610092
 21
-188.37
  0
LINE
  8
0
 10
0.610092
 20
-188.37
 11
0.463516
 21
-188.427
  0
LINE
  8
0
 10
0.463516
 20
-188.427
 11
0.311859
 21
-188.467
  0
LINE
  8
0
 10
0.311859
 20
-188.467
 11
0.156784
 21
-188.492
  0
LINE
  8
0
 10
0.156784
 20
-188.492
 11
0
 21
-188.5
  0
LINE
  8
0
 10
0
 20
-188.5
 11
-0.156784
 21
-188.492
  0
LINE
  8
0
 10
16.0874
 20
-196.168
 11
16.1958
 21
-195.764
  0
LINE
  8
0
 10
16.1958
 20
-195.764
 11
16.3458
 21
-195.373
  0
LINE
  8
0
 10
16.3458
 20
-195.373
 11
16.5359
 21
-195
  0
LINE
  8
0
 10
16.5359
 20
-195
 11
16.7639
 21
-194.649
  0
LINE
  8
0
 10
16.7639
 20
-194.649
 11
17.0274
 21
-194.323
  0
LINE
  8
0
 10
17.0274
 20
-194.323
 11
17.3235
 21
-194.027
  0
LINE
  8
0
 10
17.3235
 20
-194.027
 11
17.6488
 21
-193.764
  0
LINE
  8
0
 10
17.6488
 20
-193.764
 11
18
 21
-193.536
  0
LINE
  8
0
 10
18
 20
-193.536
 11
18.373
 21
-193.346
  0
LINE
  8
0
 10
18.373
 20
-193.346
 11
18.7639
 21
-193.196
  0
LINE
  8
0
 10
18.7639
 20
-193.196
 11
19.1684
 21
-193.087
  0
LINE
  8
0
 10
19.1684
 20
-193.087
 11
19.5819
 21
-193.022
  0
LINE
  8
0
 10
19.5819
 20
-193.022
 11
20
 21
-193
  0
LINE
  8
0
 10
20
 20
-193
 11
20.4181
 21
-193.022
  0
LINE
  8
0
 10
20.4181
 20
-193.022
 11
20.8316
 21
-193.087
  0
LINE
  8
0
 10
20.8316
 20
-193.087
 11
21.2361
 21
-193.196
  0
LINE
  8
0
 10
21.2361
 20
-193.196
 11
21.6269
 21
-193.346
  0
LINE
  8
0
 10
21.6269
 20
-193.346
 11
22
 21
-193.536
  0
LINE
  8
0
 10
22
 20
-193.536
 11
22.3511
 21
-193.764
  0
LINE
  8
0
 10
22.3511
 20
-193.764
 11
22.6765
 21
-194.027
  0
LINE
  8
0
 10
22.6765
 20
-194.027
 11
22.9726
 21
-194.323
  0
LINE
  8
0
 10
22.9726
 20
-194.323
 11
23.2361
 21
-194.649
  0
LINE
  8
0
 10
23.2361
 20
-194.649
 11
23.4641
 21
-195
  0
LINE
  8
0
 10
23.4641
 20
-195
 11
23.6542
 21
-195.373
  0
LINE
  8
0
 10
23.6542
 20
-195.373
 11
23.8042
 21
-195.764
  0
LINE
  8
0
 10
23.8042
 20
-195.764
 11
23.9126
 21
-196.168
  0
LINE
  8
0
 10
23.9126
 20
-196.168
 11
23.9781
 21
-196.582
  0
LINE
  8
0
 10
23.9781
 20
-196.582
 11
24
 21
-197
  0
LINE
  8
0
 10
24
 20
-197
 11
23.9781
 21
-197.418
  0
LINE
  8
0
 10
23.9781
 20
-197.418
 11
23.9126
 21
-197.832
  0
LINE
  8
0
 10
23.9126
 20
-197.832
 11
23.8042
 21
-198.236
  0
LINE
  8
0
 10
23.8042
 20
-198.236
 11
23.6542
 21
-198.627
  0
LINE
  8
0
 10
23.6542
 20
-198.627
 11
23.4641
 21
-199
  0
LINE
  8
0
 10
23.4641
 20
-199
 11
23.2361
 21
-199.351
  0
LINE
  8
0
 10
23.2361
 20
-199.351
 11
22.9726
 21
-199.677
  0
LINE
  8
0
 10
22.9726
 20
-199.677
 11
22.6765
 21
-199.973
  0
LINE
  8
0
 10
22.6765
 20
-199.973
 11
22.3511
 21
-200.236
  0
LINE
  8
0
 10
22.3511
 20
-200.236
 11
22
 21
-200.464
  0
LINE
  8
0
 10
22
 20
-200.464
 11
21.6269
 21
-200.654
  0
LINE
  8
0
 10
21.6269
 20
-200.654
 11
21.2361
 21
-200.804
  0
LINE
  8
0
 10
21.2361
 20
-200.804
 11
20.8316
 21
-200.913
  0
LINE
  8
0
 10
20.8316
 20
-200.913
 11
20.4181
 21
-200.978
  0
LINE
  8
0
 10
20.4181
 20
-200.978
 11
20
 21
-201
  0
LINE
  8
0
 10
20
 20
-201
 11
19.5819
 21
-200.978
  0
LINE
  8
0
 10
19.5819
 20
-200.978
 11
19.1684
 21
-200.913
  0
LINE
  8
0
 10
19.1684
 20
-200.913
 11
18.7639
 21
-200.804
  0
LINE
  8
0
 10
18.7639
 20
-200.804
 11
18.373
 21
-200.654
  0
LINE
  8
0
 10
18.373
 20
-200.654
 11
18
 21
-200.464
  0
LINE
  8
0
 10
18
 20
-200.464
 11
17.6488
 21
-200.236
  0
LINE
  8
0
 10
17.6488
 20
-200.236
 11
17.3235
 21
-199.973
  0
LINE
  8
0
 10
17.3235
 20
-199.973
 11
17.0274
 21
-199.677
  0
LINE
  8
0
 10
17.0274
 20
-199.677
 11
16.7639
 21
-199.351
  0
LINE
  8
0
 10
16.7639
 20
-199.351
 11
16.5359
 21
-199
  0
LINE
  8
0
 10
16.5359
 20
-199
 11
16.3458
 21
-198.627
  0
LINE
  8
0
 10
16.3458
 20
-198.627
 11
16.1958
 21
-198.236
  0
LINE
  8
0
 10
16.1958
 20
-198.236
 11
16.0874
 21
-197.832
  0
LINE
  8
0
 10
16.0874
 20
-197.832
 11
16.0219
 21
-197.418
  0
LINE
  8
0
 10
16.0219
 20
-197.418
 11
16
 21
-197
  0
LINE
  8
0
 10
16
 20
-197
 11
16.0219
 21
-196.582
  0
LINE
  8
0
 10
16.0219
 20
-196.582
 11
16.0874
 21
-196.168
  0
LINE
  8
0
 10
19.8432
 20
-208.492
 11
19.6881
 21
-208.467
  0
LINE
  8
0
 10
19.6881
 20
-208.467
 11
19.5365
 21
-208.427
  0
LINE
  8
0
 10
19.5365
 20
-208.427
 11
19.3899
 21
-208.37
  0
LINE
  8
0
 10
19.3899
 20
-208.37
 11
19.25
 21
-208.299
  0
LINE
  8
0
 10
19.25
 20
-208.299
 11
19.1183
 21
-208.214
  0
LINE
  8
0
 10
19.1183
 20
-208.214
 11
18.9963
 21
-208.115
  0
LINE
  8
0
 10
18.9963
 20
-208.115
 11
18.8853
 21
-208.004
  0
LINE
  8
0
 10
18.8853
 20
-208.004
 11
18.7865
 21
-207.882
  0
LINE
  8
0
 10
18.7865
 20
-207.882
 11
18.701
 21
-207.75
  0
LINE
  8
0
 10
18.701
 20
-207.75
 11
18.6297
 21
-207.61
  0
LINE
  8
0
 10
18.6297
 20
-207.61
 11
18.5734
 21
-207.464
  0
LINE
  8
0
 10
18.5734
 20
-207.464
 11
18.5328
 21
-207.312
  0
LINE
  8
0
 10
18.5328
 20
-207.312
 11
18.5082
 21
-207.157
  0
LINE
  8
0
 10
18.5082
 20
-207.157
 11
18.5
 21
-207
  0
LINE
  8
0
 10
18.5
 20
-207
 11
18.5082
 21
-206.843
  0
LINE
  8
0
 10
18.5082
 20
-206.843
 11
18.5328
 21
-206.688
  0
LINE
  8
0
 10
18.5328
 20
-206.688
 11
18.5734
 21
-206.536
  0
LINE
  8
0
 10
18.5734
 20
-206.536
 11
18.6297
 21
-206.39
  0
LINE
  8
0
 10
18.6297
 20
-206.39
 11
18.701
 21
-206.25
  0
LINE
  8
0
 10
18.701
 20
-206.25
 11
18.7865
 21
-206.118
  0
LINE
  8
0
 10
18.7865
 20
-206.118
 11
18.8853
 21
-205.996
  0
LINE
  8
0
 10
18.8853
 20
-205.996
 11
18.9963
 21
-205.885
  0
LINE
  8
0
 10
18.9963
 20
-205.885
 11
19.1183
 21
-205.786
  0
LINE
  8
0
 10
19.1183
 20
-205.786
 11
19.25
 21
-205.701
  0
LINE
  8
0
 10
19.25
 20
-205.701
 11
19.3899
 21
-205.63
  0
LINE
  8
0
 10
19.3899
 20
-205.63
 11
19.5365
 21
-205.573
  0
LINE
  8
0
 10
19.5365
 20
-205.573
 11
19.6881
 21
-205.533
  0
LINE
  8
0
 10
19.6881
 20
-205.533
 11
19.8432
 21
-205.508
  0
LINE
  8
0
 10
19.8432
 20
-205.508
 11
20
 21
-205.5
  0
LINE
  8
0
 10
20
 20
-205.5
 11
20.1568
 21
-205.508
  0
LINE
  8
0
 10
20.1568
 20
-205.508
 11
20.3119
 21
-205.533
  0
LINE
  8
0
 10
20.3119
 20
-205.533
 11
20.4635
 21
-205.573
  0
LINE
  8
0
 10
20.4635
 20
-205.573
 11
20.6101
 21
-205.63
  0
LINE
  8
0
 10
20.6101
 20
-205.63
 11
20.75
 21
-205.701
  0
LINE
  8
0
 10
20.75
 20
-205.701
 11
20.8817
 21
-205.786
  0
LINE
  8
0
 10
20.8817
 20
-205.786
 11
21.0037
 21
-205.885
  0
LINE
  8
0
 10
21.0037
 20
-205.885
 11
21.1147
 21
-205.996
  0
LINE
  8
0
 10
21.1147
 20
-205.996
 11
21.2135
 21
-206.118
  0
LINE
  8
0
 10
21.2135
 20
-206.118
 11
21.299
 21
-206.25
  0
LINE
  8
0
 10
21.299
 20
-206.25
 11
21.3703
 21
-206.39
  0
LINE
  8
0
 10
21.3703
 20
-206.39
 11
21.4266
 21
-206.536
  0
LINE
  8
0
 10
21.4266
 20
-206.536
 11
21.4672
 21
-206.688
  0
LINE
  8
0
 10
21.4672
 20
-206.688
 11
21.4918
 21
-206.843
  0
LINE
  8
0
 10
21.4918
 20
-206.843
 11
21.5
 21
-207
  0
LINE
  8
0
 10
21.5
 20
-207
 11
21.4918
 21
-207.157
  0
LINE
  8
0
 10
21.4918
 20
-207.157
 11
21.4672
 21
-207.312
  0
LINE
  8
0
 10
21.4672
 20
-207.312
 11
21.4266
 21
-207.464
  0
LINE
  8
0
 10
21.4266
 20
-207.464
 11
21.3703
 21
-207.61
  0
LINE
  8
0
 10
21.3703
 20
-207.61
 11
21.299
 21
-207.75
  0
LINE
  8
0
 10
21.299
 20
-207.75
 11
21.2135
 21
-207.882
  0
LINE
  8
0
 10
21.2135
 20
-207.882
 11
21.1147
 21
-208.004
  0
LINE
  8
0
 10
21.1147
 20
-208.004
 11
21.0037
 21
-208.115
  0
LINE
  8
0
 10
21.0037
 20
-208.115
 11
20.8817
 21
-208.214
  0
LINE
  8
0
 10
20.8817
 20
-208.214
 11
20.75
 21
-208.299
  0
LINE
  8
0
 10
20.75
 20
-208.299
 11
20.6101
 21
-208.37
  0
LINE
  8
0
 10
20.6101
 20
-208.37
 11
20.4635
 21
-208.427
  0
LINE
  8
0
 10
20.4635
 20
-208.427
 11
20.3119
 21
-208.467
  0
LINE
  8
0
 10
20.3119
 20
-208.467
 11
20.1568
 21
-208.492
  0
LINE
  8
0
 10
20.1568
 20
-208.492
 11
20
 21
-208.5
  0
LINE
  8
0
 10
20
 20
-208.5
 11
19.8432
 21
-208.492
  0
LINE
  8
0
 10
-0.156784
 20
-208.492
 11
-0.311859
 21
-208.467
  0
LINE
  8
0
 10
-0.311859
 20
-208.467
 11
-0.463516
 21
-208.427
  0
LINE
  8
0
 10
-0.463516
 20
-208.427
 11
-0.610092
 21
-208.37
  0
LINE
  8
0
 10
-0.610092
 20
-208.37
 11
-0.75
 21
-208.299
  0
LINE
  8
0
 10
-0.75
 20
-208.299
 11
-0.881668
 21
-208.214
  0
LINE
  8
0
 10
-0.881668
 20
-208.214
 11
-1.00369
 21
-208.115
  0
LINE
  8
0
 10
-1.00369
 20
-208.115
 11
-1.11472
 21
-208.004
  0
LINE
  8
0
 10
-1.11472
 20
-208.004
 11
-1.21352
 21
-207.882
  0
LINE
  8
0
 10
-1.21352
 20
-207.882
 11
-1.29903
 21
-207.75
  0
LINE
  8
0
 10
-1.29903
 20
-207.75
 11
-1.37032
 21
-207.61
  0
LINE
  8
0
 10
-1.37032
 20
-207.61
 11
-1.42657
 21
-207.464
  0
LINE
  8
0
 10
-1.42657
 20
-207.464
 11
-1.46721
 21
-207.312
  0
LINE
  8
0
 10
-1.46721
 20
-207.312
 11
-1.49178
 21
-207.157
  0
LINE
  8
0
 10
-1.49178
 20
-207.157
 11
-1.5
 21
-207
  0
LINE
  8
0
 10
-1.5
 20
-207
 11
-1.49178
 21
-206.843
  0
LINE
  8
0
 10
-1.49178
 20
-206.843
 11
-1.46721
 21
-206.688
  0
LINE
  8
0
 10
-1.46721
 20
-206.688
 11
-1.42657
 21
-206.536
  0
LINE
  8
0
 10
-1.42657
 20
-206.536
 11
-1.37032
 21
-206.39
  0
LINE
  8
0
 10
-1.37032
 20
-206.39
 11
-1.29903
 21
-206.25
  0
LINE
  8
0
 10
-1.29903
 20
-206.25
 11
-1.21352
 21
-206.118
  0
LINE
  8
0
 10
-1.21352
 20
-206.118
 11
-1.11472
 21
-205.996
  0
LINE
  8
0
 10
-1.11472
 20
-205.996
 11
-1.00369
 21
-205.885
  0
LINE
  8
0
 10
-1.00369
 20
-205.885
 11
-0.881668
 21
-205.786
  0
LINE
  8
0
 10
-0.881668
 20
-205.786
 11
-0.75
 21
-205.701
  0
LINE
  8
0
 10
-0.75
 20
-205.701
 11
-0.610092
 21
-205.63
  0
LINE
  8
0
 10
-0.610092
 20
-205.63
 11
-0.463516
 21
-205.573
  0
LINE
  8
0
 10
-0.463516
 20
-205.573
 11
-0.311859
 21
-205.533
  0
LINE
  8
0
 10
-0.311859
 20
-205.533
 11
-0.156784
 21
-205.508
  0
LINE
  8
0
 10
-0.156784
 20
-205.508
 11
0
 21
-205.5
  0
LINE
  8
0
 10
0
 20
-205.5
 11
0.156784
 21
-205.508
  0
LINE
  8
0
 10
0.156784
 20
-205.508
 11
0.311859
 21
-205.533
  0
LINE
  8
0
 10
0.311859
 20
-205.533
 11
0.463516
 21
-205.573
  0
LINE
  8
0
 10
0.463516
 20
-205.573
 11
0.610092
 21
-205.63
  0
LINE
  8
0
 10
0.610092
 20
-205.63
 11
0.75
 21
-205.701
  0
LINE
  8
0
 10
0.75
 20
-205.701
 11
0.881668
 21
-205.786
  0
LINE
  8
0
 10
0.881668
 20
-205.786
 11
1.00369
 21
-205.885
  0
LINE
  8
0
 10
1.00369
 20
-205.885
 11
1.11472
 21
-205.996
  0
LINE
  8
0
 10
1.11472
 20
-205.996
 11
1.21352
 21
-206.118
  0
LINE
  8
0
 10
1.21352
 20
-206.118
 11
1.29903
 21
-206.25
  0
LINE
  8
0
 10
1.29903
 20
-206.25
 11
1.37032
 21
-206.39
  0
LINE
  8
0
 10
1.37032
 20
-206.39
 11
1.42657
 21
-206.536
  0
LINE
  8
0
 10
1.42657
 20
-206.536
 11
1.46721
 21
-206.688
  0
LINE
  8
0
 10
1.46721
 20
-206.688
 11
1.49178
 21
-206.843
  0
LINE
  8
0
 10
1.49178
 20
-206.843
 11
1.5
 21
-207
  0
LINE
  8
0
 10
1.5
 20
-207
 11
1.49178
 21
-207.157
  0
LINE
  8
0
 10
1.49178
 20
-207.157
 11
1.46721
 21
-207.312
  0
LINE
  8
0
 10
1.46721
 20
-207.312
 11
1.42657
 21
-207.464
  0
LINE
  8
0
 10
1.42657
 20
-207.464
 11
1.37032
 21
-207.61
  0
LINE
  8
0
 10
1.37032
 20
-207.61
 11
1.29903
 21
-207.75
  0
LINE
  8
0
 10
1.29903
 20
-207.75
 11
1.21352
 21
-207.882
  0
LINE
  8
0
 10
1.21352
 20
-207.882
 11
1.11472
 21
-208.004
  0
LINE
  8
0
 10
1.11472
 20
-208.004
 11
1.00369
 21
-208.115
  0
LINE
  8
0
 10
1.00369
 20
-208.115
 11
0.881668
 21
-208.214
  0
LINE
  8
0
 10
0.881668
 20
-208.214
 11
0.75
 21
-208.299
  0
LINE
  8
0
 10
0.75
 20
-208.299
 11
0.610092
 21
-208.37
  0
LINE
  8
0
 10
0.610092
 20
-208.37
 11
0.463516
 21
-208.427
  0
LINE
  8
0
 10
0.463516
 20
-208.427
 11
0.311859
 21
-208.467
  0
LINE
  8
0
 10
0.311859
 20
-208.467
 11
0.156784
 21
-208.492
  0
LINE
  8
0
 10
0.156784
 20
-208.492
 11
0
 21
-208.5
  0
LINE
  8
0
 10
0
 20
-208.5
 11
-0.156784
 21
-208.492
  0
LINE
  8
0
 10
-20.1568
 20
-208.492
 11
-20.3119
 21
-208.467
  0
LINE
  8
0
 10
-20.3119
 20
-208.467
 11
-20.4635
 21
-208.427
  0
LINE
  8
0
 10
-20.4635
 20
-208.427
 11
-20.6101
 21
-208.37
  0
LINE
  8
0
 10
-20.6101
 20
-208.37
 11
-20.75
 21
-208.299
  0
LINE
  8
0
 10
-20.75
 20
-208.299
 11
-20.8817
 21
-208.214
  0
LINE
  8
0
 10
-20.8817
 20
-208.214
 11
-21.0037
 21
-208.115
  0
LINE
  8
0
 10
-21.0037
 20
-208.115
 11
-21.1147
 21
-208.004
  0
LINE
  8
0
 10
-21.1147
 20
-208.004
 11
-21.2135
 21
-207.882
  0
LINE
  8
0
 10
-21.2135
 20
-207.882
 11
-21.299
 21
-207.75
  0
LINE
  8
0
 10
-21.299
 20
-207.75
 11
-21.3703
 21
-207.61
  0
LINE
  8
0
 10
-21.3703
 20
-207.61
 11
-21.4266
 21
-207.464
  0
LINE
  8
0
 10
-21.4266
 20
-207.464
 11
-21.4672
 21
-207.312
  0
LINE
  8
0
 10
-21.4672
 20
-207.312
 11
-21.4918
 21
-207.157
  0
LINE
  8
0
 10
-21.4918
 20
-207.157
 11
-21.5
 21
-207
  0
LINE
  8
0
 10
-21.5
 20
-207
 11
-21.4918
 21
-206.843
  0
LINE
  8
0
 10
-21.4918
 20
-206.843
 11
-21.4672
 21
-206.688
  0
LINE
  8
0
 10
-21.4672
 20
-206.688
 11
-21.4266
 21
-206.536
  0
LINE
  8
0
 10
-21.4266
 20
-206.536
 11
-21.3703
 21
-206.39
  0
LINE
  8
0
 10
-21.3703
 20
-206.39
 11
-21.299
 21
-206.25
  0
LINE
  8
0
 10
-21.299
 20
-206.25
 11
-21.2135
 21
-206.118
  0
LINE
  8
0
 10
-21.2135
 20
-206.118
 11
-21.1147
 21
-205.996
  0
LINE
  8
0
 10
-21.1147
 20
-205.996
 11
-21.0037
 21
-205.885
  0
LINE
  8
0
 10
-21.0037
 20
-205.885
 11
-20.8817
 21
-205.786
  0
LINE
  8
0
 10
-20.8817
 20
-205.786
 11
-20.75
 21
-205.701
  0
LINE
  8
0
 10
-20.75
 20
-205.701
 11
-20.6101
 21
-205.63
  0
LINE
  8
0
 10
-20.6101
 20
-205.63
 11
-20.4635
 21
-205.573
  0
LINE
  8
0
 10
-20.4635
 20
-205.573
 11
-20.3119
 21
-205.533
  0
LINE
  8
0
 10
-20.3119
 20
-205.533
 11
-20.1568
 21
-205.508
  0
LINE
  8
0
 10
-20.1568
 20
-205.508
 11
-20
 21
-205.5
  0
LINE
  8
0
 10
-20
 20
-205.5
 11
-19.8432
 21
-205.508
  0
LINE
  8
0
 10
-19.8432
 20
-205.508
 11
-19.6881
 21
-205.533
  0
LINE
  8
0
 10
-19.6881
 20
-205.533
 11
-19.5365
 21
-205.573
  0
LINE
  8
0
 10
-19.5365
 20
-205.573
 11
-19.3899
 21
-205.63
  0
LINE
  8
0
 10
-19.3899
 20
-205.63
 11
-19.25
 21
-205.701
  0
LINE
  8
0
 10
-19.25
 20
-205.701
 11
-19.1183
 21
-205.786
  0
LINE
  8
0
 10
-19.1183
 20
-205.786
 11
-18.9963
 21
-205.885
  0
LINE
  8
0
 10
-18.9963
 20
-205.885
 11
-18.8853
 21
-205.996
  0
LINE
  8
0
 10
-18.8853
 20
-205.996
 11
-18.7865
 21
-206.118
  0
LINE
  8
0
 10
-18.7865
 20
-206.118
 11
-18.701
 21
-206.25
  0
LINE
  8
0
 10
-18.701
 20
-206.25
 11
-18.6297
 21
-206.39
  0
LINE
  8
0
 10
-18.6297
 20
-206.39
 11
-18.5734
 21
-206.536
  0
LINE
  8
0
 10
-18.5734
 20
-206.536
 11
-18.5328
 21
-206.688
  0
LINE
  8
0
 10
-18.5328
 20
-206.688
 11
-18.5082
 21
-206.843
  0
LINE
  8
0
 10
-18.5082
 20
-206.843
 11
-18.5
 21
-207
  0
LINE
  8
0
 10
-18.5
 20
-207
 11
-18.5082
 21
-207.157
  0
LINE
  8
0
 10
-18.5082
 20
-207.157
 11
-18.5328
 21
-207.312
  0
LINE
  8
0
 10
-18.5328
 20
-207.312
 11
-18.5734
 21
-207.464
  0
LINE
  8
0
 10
-18.5734
 20
-207.464
 11
-18.6297
 21
-207.61
  0
LINE
  8
0
 10
-18.6297
 20
-207.61
 11
-18.701
 21
-207.75
  0
LINE
  8
0
 10
-18.701
 20
-207.75
 11
-18.7865
 21
-207.882
  0
LINE
  8
0
 10
-18.7865
 20
-207.882
 11
-18.8853
 21
-208.004
  0
LINE
  8
0
 10
-18.8853
 20
-208.004
 11
-18.9963
 21
-208.115
  0
LINE
  8
0
 10
-18.9963
 20
-208.115
 11
-19.1183
 21
-208.214
  0
LINE
  8
0
 10
-19.1183
 20
-208.214
 11
-19.25
 21
-208.299
  0
LINE
  8
0
 10
-19.25
 20
-208.299
 11
-19.3899
 21
-208.37
  0
LINE
  8
0
 10
-19.3899
 20
-208.37
 11
-19.5365
 21
-208.427
  0
LINE
  8
0
 10
-19.5365
 20
-208.427
 11
-19.6881
 21
-208.467
  0
LINE
  8
0
 10
-19.6881
 20
-208.467
 11
-19.8432
 21
-208.492
  0
LINE
  8
0
 10
-19.8432
 20
-208.492
 11
-20
 21
-208.5
  0
LINE
  8
0
 10
-20
 20
-208.5
 11
-20.1568
 21
-208.492
  0
LINE
  8
0
 10
19.7909
 20
-281.989
 11
19.5842
 21
-281.956
  0
LINE
  8
0
 10
19.5842
 20
-281.956
 11
19.382
 21
-281.902
  0
LINE
  8
0
 10
19.382
 20
-281.902
 11
19.1865
 21
-281.827
  0
LINE
  8
0
 10
19.1865
 20
-281.827
 11
19
 21
-281.732
  0
LINE
  8
0
 10
19
 20
-281.732
 11
18.8244
 21
-281.618
  0
LINE
  8
0
 10
18.8244
 20
-281.618
 11
18.6617
 21
-281.486
  0
LINE
  8
0
 10
18.6617
 20
-281.486
 11
18.5137
 21
-281.338
  0
LINE
  8
0
 10
18.5137
 20
-281.338
 11
18.382
 21
-281.176
  0
LINE
  8
0
 10
18.382
 20
-281.176
 11
18.2679
 21
-281
  0
LINE
  8
0
 10
18.2679
 20
-281
 11
18.1729
 21
-280.813
  0
LINE
  8
0
 10
18.1729
 20
-280.813
 11
18.0979
 21
-280.618
  0
LINE
  8
0
 10
18.0979
 20
-280.618
 11
18.0437
 21
-280.416
  0
LINE
  8
0
 10
18.0437
 20
-280.416
 11
18.011
 21
-280.209
  0
LINE
  8
0
 10
18.011
 20
-280.209
 11
18
 21
-280
  0
LINE
  8
0
 10
18
 20
-280
 11
18.011
 21
-279.791
  0
LINE
  8
0
 10
18.011
 20
-279.791
 11
18.0437
 21
-279.584
  0
LINE
  8
0
 10
18.0437
 20
-279.584
 11
18.0979
 21
-279.382
  0
LINE
  8
0
 10
18.0979
 20
-279.382
 11
18.1729
 21
-279.187
  0
LINE
  8
0
 10
18.1729
 20
-279.187
 11
18.2679
 21
-279
  0
LINE
  8
0
 10
18.2679
 20
-279
 11
18.382
 21
-278.824
  0
LINE
  8
0
 10
18.382
 20
-278.824
 11
18.5137
 21
-278.662
  0
LINE
  8
0
 10
18.5137
 20
-278.662
 11
18.6617
 21
-278.514
  0
LINE
  8
0
 10
18.6617
 20
-278.514
 11
18.8244
 21
-278.382
  0
LINE
  8
0
 10
18.8244
 20
-278.382
 11
19
 21
-278.268
  0
LINE
  8
0
 10
19
 20
-278.268
 11
19.1865
 21
-278.173
  0
LINE
  8
0
 10
19.1865
 20
-278.173
 11
19.382
 21
-278.098
  0
LINE
  8
0
 10
19.382
 20
-278.098
 11
19.5842
 21
-278.044
  0
LINE
  8
0
 10
19.5842
 20
-278.044
 11
19.7909
 21
-278.011
  0
LINE
  8
0
 10
19.7909
 20
-278.011
 11
20
 21
-278
  0
LINE
  8
0
 10
20
 20
-278
 11
20.209
 21
-278.011
  0
LINE
  8
0
 10
20.209
 20
-278.011
 11
20.4158
 21
-278.044
  0
LINE
  8
0
 10
20.4158
 20
-278.044
 11
20.618
 21
-278.098
  0
LINE
  8
0
 10
20.618
 20
-278.098
 11
20.8135
 21
-278.173
  0
LINE
  8
0
 10
20.8135
 20
-278.173
 11
21
 21
-278.268
  0
LINE
  8
0
 10
21
 20
-278.268
 11
21.1756
 21
-278.382
  0
LINE
  8
0
 10
21.1756
 20
-278.382
 11
21.3383
 21
-278.514
  0
LINE
  8
0
 10
21.3383
 20
-278.514
 11
21.4863
 21
-278.662
  0
LINE
  8
0
 10
21.4863
 20
-278.662
 11
21.618
 21
-278.824
  0
LINE
  8
0
 10
21.618
 20
-278.824
 11
21.732
 21
-279
  0
LINE
  8
0
 10
21.732
 20
-279
 11
21.8271
 21
-279.187
  0
LINE
  8
0
 10
21.8271
 20
-279.187
 11
21.9021
 21
-279.382
  0
LINE
  8
0
 10
21.9021
 20
-279.382
 11
21.9563
 21
-279.584
  0
LINE
  8
0
 10
21.9563
 20
-279.584
 11
21.989
 21
-279.791
  0
LINE
  8
0
 10
21.989
 20
-279.791
 11
22
 21
-280
  0
LINE
  8
0
 10
22
 20
-280
 11
21.989
 21
-280.209
  0
LINE
  8
0
 10
21.989
 20
-280.209
 11
21.9563
 21
-280.416
  0
LINE
  8
0
 10
21.9563
 20
-280.416
 11
21.9021
 21
-280.618
  0
LINE
  8
0
 10
21.9021
 20
-280.618
 11
21.8271
 21
-280.813
  0
LINE
  8
0
 10
21.8271
 20
-280.813
 11
21.732
 21
-281
  0
LINE
  8
0
 10
21.732
 20
-281
 11
21.618
 21
-281.176
  0
LINE
  8
0
 10
21.618
 20
-281.176
 11
21.4863
 21
-281.338
  0
LINE
  8
0
 10
21.4863
 20
-281.338
 11
21.3383
 21
-281.486
  0
LINE
  8
0
 10
21.3383
 20
-281.486
 11
21.1756
 21
-281.618
  0
LINE
  8
0
 10
21.1756
 20
-281.618
 11
21
 21
-281.732
  0
LINE
  8
0
 10
21
 20
-281.732
 11
20.8135
 21
-281.827
  0
LINE
  8
0
 10
20.8135
 20
-281.827
 11
20.618
 21
-281.902
  0
LINE
  8
0
 10
20.618
 20
-281.902
 11
20.4158
 21
-281.956
  0
LINE
  8
0
 10
20.4158
 20
-281.956
 11
20.209
 21
-281.989
  0
LINE
  8
0
 10
20.209
 20
-281.989
 11
20
 21
-282
  0
LINE
  8
0
 10
20
 20
-282
 11
19.7909
 21
-281.989
  0
LINE
  8
0
 10
-20.209
 20
-281.989
 11
-20.4158
 21
-281.956
  0
LINE
  8
0
 10
-20.4158
 20
-281.956
 11
-20.618
 21
-281.902
  0
LINE
  8
0
 10
-20.618
 20
-281.902
 11
-20.8135
 21
-281.827
  0
LINE
  8
0
 10
-20.8135
 20
-281.827
 11
-21
 21
-281.732
  0
LINE
  8
0
 10
-21
 20
-281.732
 11
-21.1756
 21
-281.618
  0
LINE
  8
0
 10
-21.1756
 20
-281.618
 11
-21.3383
 21
-281.486
  0
LINE
  8
0
 10
-21.3383
 20
-281.486
 11
-21.4863
 21
-281.338
  0
LINE
  8
0
 10
-21.4863
 20
-281.338
 11
-21.618
 21
-281.176
  0
LINE
  8
0
 10
-21.618
 20
-281.176
 11
-21.732
 21
-281
  0
LINE
  8
0
 10
-21.732
 20
-281
 11
-21.8271
 21
-280.813
  0
LINE
  8
0
 10
-21.8271
 20
-280.813
 11
-21.9021
 21
-280.618
  0
LINE
  8
0
 10
-21.9021
 20
-280.618
 11
-21.9563
 21
-280.416
  0
LINE
  8
0
 10
-21.9563
 20
-280.416
 11
-21.989
 21
-280.209
  0
LINE
  8
0
 10
-21.989
 20
-280.209
 11
-22
 21
-280
  0
LINE
  8
0
 10
-22
 20
-280
 11
-21.989
 21
-279.791
  0
LINE
  8
0
 10
-21.989
 20
-279.791
 11
-21.9563
 21
-279.584
  0
LINE
  8
0
 10
-21.9563
 20
-279.584
 11
-21.9021
 21
-279.382
  0
LINE
  8
0
 10
-21.9021
 20
-279.382
 11
-21.8271
 21
-279.187
  0
LINE
  8
0
 10
-21.8271
 20
-279.187
 11
-21.732
 21
-279
  0
LINE
  8
0
 10
-21.732
 20
-279
 11
-21.618
 21
-278.824
  0
LINE
  8
0
 10
-21.618
 20
-278.824
 11
-21.4863
 21
-278.662
  0
LINE
  8
0
 10
-21.4863
 20
-278.662
 11
-21.3383
 21
-278.514
  0
LINE
  8
0
 10
-21.3383
 20
-278.514
 11
-21.1756
 21
-278.382
  0
LINE
  8
0
 10
-21.1756
 20
-278.382
 11
-21
 21
-278.268
  0
LINE
  8
0
 10
-21
 20
-278.268
 11
-20.8135
 21
-278.173
  0
LINE
  8
0
 10
-20.8135
 20
-278.173
 11
-20.618
 21
-278.098
  0
LINE
  8
0
 10
-20.618
 20
-278.098
 11
-20.4158
 21
-278.044
  0
LINE
  8
0
 10
-20.4158
 20
-278.044
 11
-20.209
 21
-278.011
  0
LINE
  8
0
 10
-20.209
 20
-278.011
 11
-20
 21
-278
  0
LINE
  8
0
 10
-20
 20
-278
 11
-19.7909
 21
-278.011
  0
LINE
  8
0
 10
-19.7909
 20
-278.011
 11
-19.5842
 21
-278.044
  0
LINE
  8
0
 10
-19.5842
 20
-278.044
 11
-19.382
 21
-278.098
  0
LINE
  8
0
 10
-19.382
 20
-278.098
 11
-19.1865
 21
-278.173
  0
LINE
  8
0
 10
-19.1865
 20
-278.173
 11
-19
 21
-278.268
  0
LINE
  8
0
 10
-19
 20
-278.268
 11
-18.8244
 21
-278.382
  0
LINE
  8
0
 10
-18.8244
 20
-278.382
 11
-18.6617
 21
-278.514
  0
LINE
  8
0
 10
-18.6617
 20
-278.514
 11
-18.5137
 21
-278.662
  0
LINE
  8
0
 10
-18.5137
 20
-278.662
 11
-18.382
 21
-278.824
  0
LINE
  8
0
 10
-18.382
 20
-278.824
 11
-18.2679
 21
-279
  0
LINE
  8
0
 10
-18.2679
 20
-279
 11
-18.1729
 21
-279.187
  0
LINE
  8
0
 10
-18.1729
 20
-279.187
 11
-18.0979
 21
-279.382
  0
LINE
  8
0
 10
-18.0979
 20
-279.382
 11
-18.0437
 21
-279.584
  0
LINE
  8
0
 10
-18.0437
 20
-279.584
 11
-18.011
 21
-279.791
  0
LINE
  8
0
 10
-18.011
 20
-279.791
 11
-18
 21
-280
  0
LINE
  8
0
 10
-18
 20
-280
 11
-18.011
 21
-280.209
  0
LINE
  8
0
 10
-18.011
 20
-280.209
 11
-18.0437
 21
-280.416
  0
LINE
  8
0
 10
-18.0437
 20
-280.416
 11
-18.0979
 21
-280.618
  0
LINE
  8
0
 10
-18.0979
 20
-280.618
 11
-18.1729
 21
-280.813
  0
LINE
  8
0
 10
-18.1729
 20
-280.813
 11
-18.2679
 21
-281
  0
LINE
  8
0
 10
-18.2679
 20
-281
 11
-18.382
 21
-281.176
  0
LINE
  8
0
 10
-18.382
 20
-281.176
 11
-18.5137
 21
-281.338
  0
LINE
  8
0
 10
-18.5137
 20
-281.338
 11
-18.6617
 21
-281.486
  0
LINE
  8
0
 10
-18.6617
 20
-281.486
 11
-18.8244
 21
-281.618
  0
LINE
  8
0
 10
-18.8244
 20
-281.618
 11
-19
 21
-281.732
  0
LINE
  8
0
 10
-19
 20
-281.732
 11
-19.1865
 21
-281.827
  0
LINE
  8
0
 10
-19.1865
 20
-281.827
 11
-19.382
 21
-281.902
  0
LINE
  8
0
 10
-19.382
 20
-281.902
 11
-19.5842
 21
-281.956
  0
LINE
  8
0
 10
-19.5842
 20
-281.956
 11
-19.7909
 21
-281.989
  0
LINE
  8
0
 10
-19.7909
 20
-281.989
 11
-20
 21
-282
  0
LINE
  8
0
 10
-20
 20
-282
 11
-20.209
 21
-281.989
  0
LINE
  8
0
 10
-0.209045
 20
-281.989
 11
-0.415817
 21
-281.956
  0
LINE
  8
0
 10
-0.415817
 20
-281.956
 11
-0.618027
 21
-281.902
  0
LINE
  8
0
 10
-0.618027
 20
-281.902
 11
-0.813461
 21
-281.827
  0
LINE
  8
0
 10
-0.813461
 20
-281.827
 11
-1
 21
-281.732
  0
LINE
  8
0
 10
-1
 20
-281.732
 11
-1.17557
 21
-281.618
  0
LINE
  8
0
 10
-1.17557
 20
-281.618
 11
-1.33826
 21
-281.486
  0
LINE
  8
0
 10
-1.33826
 20
-281.486
 11
-1.48628
 21
-281.338
  0
LINE
  8
0
 10
-1.48628
 20
-281.338
 11
-1.61803
 21
-281.176
  0
LINE
  8
0
 10
-1.61803
 20
-281.176
 11
-1.73204
 21
-281
  0
LINE
  8
0
 10
-1.73204
 20
-281
 11
-1.82709
 21
-280.813
  0
LINE
  8
0
 10
-1.82709
 20
-280.813
 11
-1.9021
 21
-280.618
  0
LINE
  8
0
 10
-1.9021
 20
-280.618
 11
-1.95628
 21
-280.416
  0
LINE
  8
0
 10
-1.95628
 20
-280.416
 11
-1.98903
 21
-280.209
  0
LINE
  8
0
 10
-1.98903
 20
-280.209
 11
-2
 21
-280
  0
LINE
  8
0
 10
-2
 20
-280
 11
-1.98903
 21
-279.791
  0
LINE
  8
0
 10
-1.98903
 20
-279.791
 11
-1.95628
 21
-279.584
  0
LINE
  8
0
 10
-1.95628
 20
-279.584
 11
-1.9021
 21
-279.382
  0
LINE
  8
0
 10
-1.9021
 20
-279.382
 11
-1.82709
 21
-279.187
  0
LINE
  8
0
 10
-1.82709
 20
-279.187
 11
-1.73204
 21
-279
  0
LINE
  8
0
 10
-1.73204
 20
-279
 11
-1.61803
 21
-278.824
  0
LINE
  8
0
 10
-1.61803
 20
-278.824
 11
-1.48628
 21
-278.662
  0
LINE
  8
0
 10
-1.48628
 20
-278.662
 11
-1.33826
 21
-278.514
  0
LINE
  8
0
 10
-1.33826
 20
-278.514
 11
-1.17557
 21
-278.382
  0
LINE
  8
0
 10
-1.17557
 20
-278.382
 11
-1
 21
-278.268
  0
LINE
  8
0
 10
-1
 20
-278.268
 11
-0.813461
 21
-278.173
  0
LINE
  8
0
 10
-0.813461
 20
-278.173
 11
-0.618027
 21
-278.098
  0
LINE
  8
0
 10
-0.618027
 20
-278.098
 11
-0.415817
 21
-278.044
  0
LINE
  8
0
 10
-0.415817
 20
-278.044
 11
-0.209045
 21
-278.011
  0
LINE
  8
0
 10
-0.209045
 20
-278.011
 11
0
 21
-278
  0
LINE
  8
0
 10
0
 20
-278
 11
0.209045
 21
-278.011
  0
LINE
  8
0
 10
0.209045
 20
-278.011
 11
0.415817
 21
-278.044
  0
LINE
  8
0
 10
0.415817
 20
-278.044
 11
0.618027
 21
-278.098
  0
LINE
  8
0
 10
0.618027
 20
-278.098
 11
0.813461
 21
-278.173
  0
LINE
  8
0
 10
0.813461
 20
-278.173
 11
1
 21
-278.268
  0
LINE
  8
0
 10
1
 20
-278.268
 11
1.17557
 21
-278.382
  0
LINE
  8
0
 10
1.17557
 20
-278.382
 11
1.33826
 21
-278.514
  0
LINE
  8
0
 10
1.33826
 20
-278.514
 11
1.48628
 21
-278.662
  0
LINE
  8
0
 10
1.48628
 20
-278.662
 11
1.61803
 21
-278.824
  0
LINE
  8
0
 10
1.61803
 20
-278.824
 11
1.73204
 21
-279
  0
LINE
  8
0
 10
1.73204
 20
-279
 11
1.82709
 21
-279.187
  0
LINE
  8
0
 10
1.82709
 20
-279.187
 11
1.9021
 21
-279.382
  0
LINE
  8
0
 10
1.9021
 20
-279.382
 11
1.95628
 21
-279.584
  0
LINE
  8
0
 10
1.95628
 20
-279.584
 11
1.98903
 21
-279.791
  0
LINE
  8
0
 10
1.98903
 20
-279.791
 11
2
 21
-280
  0
LINE
  8
0
 10
2
 20
-280
 11
1.98903
 21
-280.209
  0
LINE
  8
0
 10
1.98903
 20
-280.209
 11
1.95628
 21
-280.416
  0
LINE
  8
0
 10
1.95628
 20
-280.416
 11
1.9021
 21
-280.618
  0
LINE
  8
0
 10
1.9021
 20
-280.618
 11
1.82709
 21
-280.813
  0
LINE
  8
0
 10
1.82709
 20
-280.813
 11
1.73204
 21
-281
  0
LINE
  8
0
 10
1.73204
 20
-281
 11
1.61803
 21
-281.176
  0
LINE
  8
0
 10
1.61803
 20
-281.176
 11
1.48628
 21
-281.338
  0
LINE
  8
0
 10
1.48628
 20
-281.338
 11
1.33826
 21
-281.486
  0
LINE
  8
0
 10
1.33826
 20
-281.486
 11
1.17557
 21
-281.618
  0
LINE
  8
0
 10
1.17557
 20
-281.618
 11
1
 21
-281.732
  0
LINE
  8
0
 10
1
 20
-281.732
 11
0.813461
 21
-281.827
  0
LINE
  8
0
 10
0.813461
 20
-281.827
 11
0.618027
 21
-281.902
  0
LINE
  8
0
 10
0.618027
 20
-281.902
 11
0.415817
 21
-281.956
  0
LINE
  8
0
 10
0.415817
 20
-281.956
 11
0.209045
 21
-281.989
  0
LINE
  8
0
 10
0.209045
 20
-281.989
 11
0
 21
-282
  0
LINE
  8
0
 10
0
 20
-282
 11
-0.209045
 21
-281.989
  0
LINE
  8
0
 10
3.91258
 20
-197.832
 11
3.80421
 21
-198.236
  0
LINE
  8
0
 10
3.80421
 20
-198.236
 11
3.65417
 21
-198.627
  0
LINE
  8
0
 10
3.65417
 20
-198.627
 11
3.4641
 21
-199
  0
LINE
  8
0
 10
3.4641
 20
-199
 11
3.23605
 21
-199.351
  0
LINE
  8
0
 10
3.23605
 20
-199.351
 11
2.97256
 21
-199.677
  0
LINE
  8
0
 10
2.97256
 20
-199.677
 11
2.67651
 21
-199.973
  0
LINE
  8
0
 10
2.67651
 20
-199.973
 11
2.35114
 21
-200.236
  0
LINE
  8
0
 10
2.35114
 20
-200.236
 11
2
 21
-200.464
  0
LINE
  8
0
 10
2
 20
-200.464
 11
1.62694
 21
-200.654
  0
LINE
  8
0
 10
1.62694
 20
-200.654
 11
1.23605
 21
-200.804
  0
LINE
  8
0
 10
1.23605
 20
-200.804
 11
0.831635
 21
-200.913
  0
LINE
  8
0
 10
0.831635
 20
-200.913
 11
0.418106
 21
-200.978
  0
LINE
  8
0
 10
0.418106
 20
-200.978
 11
0
 21
-201
  0
LINE
  8
0
 10
0
 20
-201
 11
-0.418106
 21
-200.978
  0
LINE
  8
0
 10
-0.418106
 20
-200.978
 11
-0.831635
 21
-200.913
  0
LINE
  8
0
 10
-0.831635
 20
-200.913
 11
-1.23605
 21
-200.804
  0
LINE
  8
0
 10
-1.23605
 20
-200.804
 11
-1.62694
 21
-200.654
  0
LINE
  8
0
 10
-1.62694
 20
-200.654
 11
-2
 21
-200.464
  0
LINE
  8
0
 10
-2
 20
-200.464
 11
-2.35114
 21
-200.236
  0
LINE
  8
0
 10
-2.35114
 20
-200.236
 11
-2.67651
 21
-199.973
  0
LINE
  8
0
 10
-2.67651
 20
-199.973
 11
-2.97256
 21
-199.677
  0
LINE
  8
0
 10
-2.97256
 20
-199.677
 11
-3.23605
 21
-199.351
  0
LINE
  8
0
 10
-3.23605
 20
-199.351
 11
-3.4641
 21
-199
  0
LINE
  8
0
 10
-3.4641
 20
-199
 11
-3.65417
 21
-198.627
  0
LINE
  8
0
 10
-3.65417
 20
-198.627
 11
-3.80421
 21
-198.236
  0
LINE
  8
0
 10
-3.80421
 20
-198.236
 11
-3.91258
 21
-197.832
  0
LINE
  8
0
 10
-3.91258
 20
-197.832
 11
-3.97807
 21
-197.418
  0
LINE
  8
0
 10
-3.97807
 20
-197.418
 11
-4
 21
-197
  0
LINE
  8
0
 10
-4
 20
-197
 11
-3.97807
 21
-196.582
  0
LINE
  8
0
 10
-3.97807
 20
-196.582
 11
-3.91258
 21
-196.168
  0
LINE
  8
0
 10
-3.91258
 20
-196.168
 11
-3.80421
 21
-195.764
  0
LINE
  8
0
 10
-3.80421
 20
-195.764
 11
-3.65417
 21
-195.373
  0
LINE
  8
0
 10
-3.65417
 20
-195.373
 11
-3.4641
 21
-195
  0
LINE
  8
0
 10
-3.4641
 20
-195
 11
-3.23605
 21
-194.649
  0
LINE
  8
0
 10
-3.23605
 20
-194.649
 11
-2.97256
 21
-194.323
  0
LINE
  8
0
 10
-2.97256
 20
-194.323
 11
-2.67651
 21
-194.027
  0
LINE
  8
0
 10
-2.67651
 20
-194.027
 11
-2.35114
 21
-193.764
  0
LINE
  8
0
 10
-2.35114
 20
-193.764
 11
-2
 21
-193.536
  0
LINE
  8
0
 10
-2
 20
-193.536
 11
-1.62694
 21
-193.346
  0
LINE
  8
0
 10
-1.62694
 20
-193.346
 11
-1.23605
 21
-193.196
  0
LINE
  8
0
 10
-1.23605
 20
-193.196
 11
-0.831635
 21
-193.087
  0
LINE
  8
0
 10
-0.831635
 20
-193.087
 11
-0.418106
 21
-193.022
  0
LINE
  8
0
 10
-0.418106
 20
-193.022
 11
0
 21
-193
  0
LINE
  8
0
 10
0
 20
-193
 11
0.418106
 21
-193.022
  0
LINE
  8
0
 10
0.418106
 20
-193.022
 11
0.831635
 21
-193.087
  0
LINE
  8
0
 10
0.831635
 20
-193.087
 11
1.23605
 21
-193.196
  0
LINE
  8
0
 10
1.23605
 20
-193.196
 11
1.62694
 21
-193.346
  0
LINE
  8
0
 10
1.62694
 20
-193.346
 11
2
 21
-193.536
  0
LINE
  8
0
 10
2
 20
-193.536
 11
2.35114
 21
-193.764
  0
LINE
  8
0
 10
2.35114
 20
-193.764
 11
2.67651
 21
-194.027
  0
LINE
  8
0
 10
2.67651
 20
-194.027
 11
2.97256
 21
-194.323
  0
LINE
  8
0
 10
2.97256
 20
-194.323
 11
3.23605
 21
-194.649
  0
LINE
  8
0
 10
3.23605
 20
-194.649
 11
3.4641
 21
-195
  0
LINE
  8
0
 10
3.4641
 20
-195
 11
3.65417
 21
-195.373
  0
LINE
  8
0
 10
3.65417
 20
-195.373
 11
3.80421
 21
-195.764
  0
LINE
  8
0
 10
3.80421
 20
-195.764
 11
3.91258
 21
-196.168
  0
LINE
  8
0
 10
3.91258
 20
-196.168
 11
3.97807
 21
-196.582
  0
LINE
  8
0
 10
3.97807
 20
-196.582
 11
4
 21
-197
  0
LINE
  8
0
 10
4
 20
-197
 11
3.97807
 21
-197.418
  0
LINE
  8
0
 10
3.97807
 20
-197.418
 11
3.91258
 21
-197.832
  0
LINE
  8
0
 10
-17.3235
 20
-199.973
 11
-17.6488
 21
-200.236
  0
LINE
  8
0
 10
-17.6488
 20
-200.236
 11
-18
 21
-200.464
  0
LINE
  8
0
 10
-18
 20
-200.464
 11
-18.373
 21
-200.654
  0
LINE
  8
0
 10
-18.373
 20
-200.654
 11
-18.7639
 21
-200.804
  0
LINE
  8
0
 10
-18.7639
 20
-200.804
 11
-19.1684
 21
-200.913
  0
LINE
  8
0
 10
-19.1684
 20
-200.913
 11
-19.5819
 21
-200.978
  0
LINE
  8
0
 10
-19.5819
 20
-200.978
 11
-20
 21
-201
  0
LINE
  8
0
 10
-20
 20
-201
 11
-20.4181
 21
-200.978
  0
LINE
  8
0
 10
-20.4181
 20
-200.978
 11
-20.8316
 21
-200.913
  0
LINE
  8
0
 10
-20.8316
 20
-200.913
 11
-21.2361
 21
-200.804
  0
LINE
  8
0
 10
-21.2361
 20
-200.804
 11
-21.6269
 21
-200.654
  0
LINE
  8
0
 10
-21.6269
 20
-200.654
 11
-22
 21
-200.464
  0
LINE
  8
0
 10
-22
 20
-200.464
 11
-22.3511
 21
-200.236
  0
LINE
  8
0
 10
-22.3511
 20
-200.236
 11
-22.6765
 21
-199.973
  0
LINE
  8
0
 10
-22.6765
 20
-199.973
 11
-22.9726
 21
-199.677
  0
LINE
  8
0
 10
-22.9726
 20
-199.677
 11
-23.2361
 21
-199.351
  0
LINE
  8
0
 10
-23.2361
 20
-199.351
 11
-23.4641
 21
-199
  0
LINE
  8
0
 10
-23.4641
 20
-199
 11
-23.6542
 21
-198.627
  0
LINE
  8
0
 10
-23.6542
 20
-198.627
 11
-23.8042
 21
-198.236
  0
LINE
  8
0
 10
-23.8042
 20
-198.236
 11
-23.9126
 21
-197.832
  0
LINE
  8
0
 10
-23.9126
 20
-197.832
 11
-23.9781
 21
-197.418
  0
LINE
  8
0
 10
-23.9781
 20
-197.418
 11
-24
 21
-197
  0
LINE
  8
0
 10
-24
 20
-197
 11
-23.9781
 21
-196.582
  0
LINE
  8
0
 10
-23.9781
 20
-196.582
 11
-23.9126
 21
-196.168
  0
LINE
  8
0
 10
-23.9126
 20
-196.168
 11
-23.8042
 21
-195.764
  0
LINE
  8
0
 10
-23.8042
 20
-195.764
 11
-23.6542
 21
-195.373
  0
LINE
  8
0
 10
-23.6542
 20
-195.373
 11
-23.4641
 21
-195
  0
LINE
  8
0
 10
-23.4641
 20
-195
 11
-23.2361
 21
-194.649
  0
LINE
  8
0
 10
-23.2361
 20
-194.649
 11
-22.9726
 21
-194.323
  0
LINE
  8
0
 10
-22.9726
 20
-194.323
 11
-22.6765
 21
-194.027
  0
LINE
  8
0
 10
-22.6765
 20
-194.027
 11
-22.3511
 21
-193.764
  0
LINE
  8
0
 10
-22.3511
 20
-193.764
 11
-22
 21
-193.536
  0
LINE
  8
0
 10
-22
 20
-193.536
 11
-21.6269
 21
-193.346
  0
LINE
  8
0
 10
-21.6269
 20
-193.346
 11
-21.2361
 21
-193.196
  0
LINE
  8
0
 10
-21.2361
 20
-193.196
 11
-20.8316
 21
-193.087
  0
LINE
  8
0
 10
-20.8316
 20
-193.087
 11
-20.4181
 21
-193.022
  0
LINE
  8
0
 10
-20.4181
 20
-193.022
 11
-20
 21
-193
  0
LINE
  8
0
 10
-20
 20
-193
 11
-19.5819
 21
-193.022
  0
LINE
  8
0
 10
-19.5819
 20
-193.022
 11
-19.1684
 21
-193.087
  0
LINE
  8
0
 10
-19.1684
 20
-193.087
 11
-18.7639
 21
-193.196
  0
LINE
  8
0
 10
-18.7639
 20
-193.196
 11
-18.373
 21
-193.346
  0
LINE
  8
0
 10
-18.373
 20
-193.346
 11
-18
 21
-193.536
  0
LINE
  8
0
 10
-18
 20
-193.536
 11
-17.6488
 21
-193.764
  0
LINE
  8
0
 10
-17.6488
 20
-193.764
 11
-17.3235
 21
-194.027
  0
LINE
  8
0
 10
-17.3235
 20
-194.027
 11
-17.0274
 21
-194.323
  0
LINE
  8
0
 10
-17.0274
 20
-194.323
 11
-16.7639
 21
-194.649
  0
LINE
  8
0
 10
-16.7639
 20
-194.649
 11
-16.5359
 21
-195
  0
LINE
  8
0
 10
-16.5359
 20
-195
 11
-16.3458
 21
-195.373
  0
LINE
  8
0
 10
-16.3458
 20
-195.373
 11
-16.1958
 21
-195.764
  0
LINE
  8
0
 10
-16.1958
 20
-195.764
 11
-16.0874
 21
-196.168
  0
LINE
  8
0
 10
-16.0874
 20
-196.168
 11
-16.0219
 21
-196.582
  0
LINE
  8
0
 10
-16.0219
 20
-196.582
 11
-16
 21
-197
  0
LINE
  8
0
 10
-16
 20
-197
 11
-16.0219
 21
-197.418
  0
LINE
  8
0
 10
-16.0219
 20
-197.418
 11
-16.0874
 21
-197.832
  0
LINE
  8
0
 10
-16.0874
 20
-197.832
 11
-16.1958
 21
-198.236
  0
LINE
  8
0
 10
-16.1958
 20
-198.236
 11
-16.3458
 21
-198.627
  0
LINE
  8
0
 10
-16.3458
 20
-198.627
 11
-16.5359
 21
-199
  0
LINE
  8
0
 10
-16.5359
 20
-199
 11
-16.7639
 21
-199.351
  0
LINE
  8
0
 10
-16.7639
 20
-199.351
 11
-17.0274
 21
-199.677
  0
LINE
  8
0
 10
-17.0274
 20
-199.677
 11
-17.3235
 21
-199.973
  0
ENDSEC
  0
SECTION
  2
OBJECTS
  0
DICTIONARY
  0
ENDSEC
  0
EOF
